<?xml version="1.0" standalone="no"?>
<!DOCTYPE svg PUBLIC "-//W3C//DTD SVG 20010904//EN"
 "http://www.w3.org/TR/2001/REC-SVG-20010904/DTD/svg10.dtd">
<svg version="1.0" xmlns="http://www.w3.org/2000/svg"
 width="640.000000pt" height="640.000000pt" viewBox="0 0 640.000000 640.000000"
 preserveAspectRatio="xMidYMid meet">

<g transform="translate(0.000000,640.000000) scale(0.100000,-0.100000)"
fill="#000000" stroke="none">
<path d="M3338 6373 c7 -3 16 -2 19 1 4 3 -2 6 -13 5 -11 0 -14 -3 -6 -6z"/>
<path d="M3498 6363 c7 -3 16 -2 19 1 4 3 -2 6 -13 5 -11 0 -14 -3 -6 -6z"/>
<path d="M2888 6343 c6 -2 18 -2 25 0 6 3 1 5 -13 5 -14 0 -19 -2 -12 -5z"/>
<path d="M3498 6343 c7 -3 16 -2 19 1 4 3 -2 6 -13 5 -11 0 -14 -3 -6 -6z"/>
<path d="M3750 6310 c8 -5 22 -9 30 -9 10 0 8 3 -5 9 -27 12 -43 12 -25 0z"/>
<path d="M2495 6300 c-3 -5 -1 -10 4 -10 6 0 11 5 11 10 0 6 -2 10 -4 10 -3 0
-8 -4 -11 -10z"/>
<path d="M3658 6303 c7 -3 16 -2 19 1 4 3 -2 6 -13 5 -11 0 -14 -3 -6 -6z"/>
<path d="M2397 6279 c7 -7 15 -10 18 -7 3 3 -2 9 -12 12 -14 6 -15 5 -6 -5z"/>
<path d="M3990 6280 c-9 -6 -10 -10 -3 -10 6 0 15 5 18 10 8 12 4 12 -15 0z"/>
<path d="M2450 6266 c0 -2 9 -6 20 -9 11 -3 18 -1 14 4 -5 9 -34 13 -34 5z"/>
<path d="M3915 6260 c-3 -6 1 -7 9 -4 18 7 21 14 7 14 -6 0 -13 -4 -16 -10z"/>
<path d="M2408 6253 c7 -3 16 -2 19 1 4 3 -2 6 -13 5 -11 0 -14 -3 -6 -6z"/>
<path d="M3968 6253 c6 -2 18 -2 25 0 6 3 1 5 -13 5 -14 0 -19 -2 -12 -5z"/>
<path d="M4208 6213 c7 -3 16 -2 19 1 4 3 -2 6 -13 5 -11 0 -14 -3 -6 -6z"/>
<path d="M2208 6193 c7 -3 16 -2 19 1 4 3 -2 6 -13 5 -11 0 -14 -3 -6 -6z"/>
<path d="M2060 6176 c0 -2 7 -7 16 -10 8 -3 12 -2 9 4 -6 10 -25 14 -25 6z"/>
<path d="M4355 6160 c3 -5 8 -10 11 -10 2 0 4 5 4 10 0 6 -5 10 -11 10 -5 0
-7 -4 -4 -10z"/>
<path d="M1970 6145 c-14 -8 -20 -14 -14 -15 5 0 19 7 30 15 24 18 16 19 -16
0z"/>
<path d="M4394 6147 c-4 -7 -4 -9 1 -5 4 4 16 3 27 -3 11 -6 22 -9 24 -6 2 2
-7 9 -21 15 -18 9 -26 8 -31 -1z"/>
<path d="M1971 6119 c-14 -5 -31 -7 -38 -4 -8 3 -11 0 -7 -6 7 -11 53 -4 69
12 11 11 7 11 -24 -2z"/>
<path d="M3102 6060 c-42 -26 -66 -81 -58 -132 9 -53 25 -76 68 -99 44 -23 77
-24 122 -5 45 19 53 34 29 58 -19 18 -21 19 -51 1 -29 -16 -34 -17 -59 -3 -54
30 -40 40 57 40 l92 0 -7 37 c-10 55 -32 91 -65 108 -40 21 -89 19 -128 -5z
m99 -50 c38 -21 23 -40 -31 -40 -37 0 -50 4 -50 15 0 28 47 43 81 25z"/>
<path d="M4560 6065 c-11 -13 -10 -14 4 -9 9 3 16 10 16 15 0 13 -6 11 -20 -6z"/>
<path d="M2840 6063 c-8 -3 -25 -15 -38 -26 -17 -16 -25 -18 -34 -9 -19 19
-73 14 -103 -9 -19 -16 -29 -19 -34 -10 -9 14 -71 3 -70 -13 0 -6 10 -63 22
-126 l23 -115 34 3 c19 1 35 4 37 5 1 2 -4 40 -13 86 -17 91 -11 111 32 111
30 0 39 -18 55 -108 l13 -74 29 6 c16 3 33 6 37 6 3 0 0 41 -9 91 -17 100 -13
112 39 107 26 -3 35 -27 55 -141 6 -37 7 -38 38 -31 18 3 34 8 36 10 1 1 -5
47 -15 100 -13 74 -23 104 -40 121 -22 22 -60 28 -94 16z"/>
<path d="M3371 5970 c-17 -156 -17 -157 23 -162 l34 -4 7 71 c11 102 18 117
57 113 l33 -3 -3 -97 -2 -98 34 0 c32 0 34 2 40 43 17 124 18 148 7 176 -20
48 -85 66 -129 36 -18 -13 -21 -13 -16 -2 3 9 -3 17 -18 21 -53 14 -54 12 -67
-94z"/>
<path d="M1797 6049 c7 -7 15 -10 18 -7 3 3 -2 9 -12 12 -14 6 -15 5 -6 -5z"/>
<path d="M4583 6052 c-8 -5 1 -8 22 -8 21 0 30 3 22 8 -6 4 -16 8 -22 8 -5 0
-16 -4 -22 -8z"/>
<path d="M3718 6006 c-10 -7 -22 -25 -28 -40 -15 -39 5 -75 58 -104 23 -13 42
-30 42 -38 0 -23 -46 -16 -78 11 l-29 24 -23 -24 -22 -23 39 -26 c21 -14 57
-28 80 -32 38 -6 45 -3 73 24 47 48 38 81 -35 132 -25 17 -45 35 -45 40 0 17
46 11 73 -10 l25 -20 17 26 c19 30 16 34 -42 60 -40 17 -82 18 -105 0z"/>
<path d="M4645 6010 c3 -5 11 -10 16 -10 6 0 7 5 4 10 -3 6 -11 10 -16 10 -6
0 -7 -4 -4 -10z"/>
<path d="M2335 5944 c-60 -22 -70 -36 -48 -63 18 -22 19 -22 55 -6 35 17 88
15 88 -4 0 -5 -21 -14 -46 -20 -51 -13 -94 -50 -94 -80 0 -37 20 -71 47 -82
35 -13 84 -4 111 21 11 11 22 15 24 9 4 -13 68 9 68 23 0 35 -47 173 -66 193
-27 29 -75 32 -139 9z m113 -156 c-2 -12 -15 -29 -30 -38 -25 -13 -29 -13 -45
2 -16 16 -16 19 2 38 10 11 31 20 47 20 25 0 29 -4 26 -22z"/>
<path d="M1584 5942 c3 -5 0 -13 -6 -15 -9 -4 -10 -6 -1 -6 17 -1 25 16 12 25
-7 4 -9 3 -5 -4z"/>
<path d="M3991 5933 c-101 -52 -106 -189 -10 -239 36 -18 106 -21 123 -4 19
19 -7 44 -47 46 -38 1 -77 27 -77 51 0 18 5 17 89 -12 41 -13 77 -22 81 -20
17 11 21 83 6 118 -26 64 -104 92 -165 60z m87 -59 c12 -8 22 -24 22 -36 0
-16 -4 -19 -25 -14 -73 18 -91 36 -57 55 24 14 34 13 60 -5z"/>
<path d="M4887 5891 c10 -12 9 -18 -3 -32 -14 -16 -14 -17 10 -15 37 4 37 7 7
36 -14 14 -20 19 -14 11z"/>
<path d="M1501 5884 c7 -9 4 -14 -12 -19 -20 -7 -21 -8 -5 -17 21 -12 30 -5
32 26 0 13 -5 23 -12 23 -10 0 -11 -4 -3 -13z"/>
<path d="M2166 5878 c-9 -12 -16 -29 -16 -38 -1 -11 -4 -9 -12 5 -6 11 -12 21
-14 23 -3 5 -64 -27 -64 -34 0 -7 91 -228 96 -233 7 -7 64 22 64 33 0 6 -9 31
-20 55 -27 59 -26 95 5 119 22 18 23 22 13 56 -13 41 -30 46 -52 14z"/>
<path d="M1898 5874 c-33 -17 -32 -16 -13 -54 15 -28 15 -28 47 -13 18 9 34
17 36 19 6 4 -28 64 -36 64 -4 -1 -19 -8 -34 -16z"/>
<path d="M4950 5866 c0 -2 8 -10 18 -17 15 -13 16 -12 3 4 -13 16 -21 21 -21
13z"/>
<path d="M1375 5815 c-40 -33 -23 -54 23 -28 18 10 32 22 32 26 0 5 -14 -1
-31 -13 -40 -29 -49 -18 -13 14 37 32 28 33 -11 1z"/>
<path d="M4990 5836 c0 -2 8 -10 18 -17 15 -13 16 -12 3 4 -13 16 -21 21 -21
13z"/>
<path d="M4930 5811 c0 -9 30 -24 36 -18 2 1 -6 8 -16 15 -11 7 -20 8 -20 3z"/>
<path d="M1943 5790 c-13 -5 -23 -15 -23 -22 0 -7 25 -61 55 -120 l55 -106 30
11 c17 6 30 17 30 24 0 22 -104 223 -115 222 -5 0 -20 -4 -32 -9z"/>
<path d="M4590 5750 l-23 -50 -18 30 c-12 18 -32 33 -58 41 -103 31 -198 -100
-146 -201 18 -36 44 -50 90 -52 22 -1 35 -6 35 -14 0 -8 13 -20 30 -29 l30
-15 77 155 c75 151 77 157 59 171 -34 25 -51 17 -76 -36z m-80 -60 c44 -44 8
-124 -53 -118 -45 4 -66 43 -47 88 20 49 67 63 100 30z"/>
<path d="M4990 5794 c0 -3 16 -12 36 -20 29 -12 39 -13 48 -3 8 9 8 10 -2 5
-7 -4 -26 0 -44 8 -34 18 -38 19 -38 10z"/>
<path d="M1311 5770 c-9 -5 -4 -7 13 -7 29 0 32 2 13 10 -8 3 -20 2 -26 -3z"/>
<path d="M5119 5723 c-7 -10 -9 -15 -5 -11 5 4 16 2 25 -5 14 -10 14 -10 4 4
-7 9 -10 19 -6 22 3 4 4 7 1 7 -3 0 -12 -8 -19 -17z"/>
<path d="M1592 5710 c-35 -22 -35 -27 8 -90 9 -14 34 -56 55 -95 21 -38 49
-87 62 -108 23 -37 24 -37 53 -22 17 9 30 22 30 30 0 9 10 15 25 15 86 0 132
96 89 186 -23 49 -63 74 -117 74 -47 0 -97 -29 -97 -56 0 -26 -15 -14 -43 36
-16 28 -29 50 -30 50 -1 0 -17 -9 -35 -20z m221 -91 c65 -30 51 -129 -18 -129
-25 0 -65 46 -65 76 0 28 26 62 47 63 7 1 23 -4 36 -10z"/>
<path d="M1247 5706 c4 -5 -1 -7 -11 -3 -10 4 -15 3 -11 -3 8 -13 18 -13 39 3
16 12 16 13 -3 13 -11 0 -17 -5 -14 -10z"/>
<path d="M1175 5650 c6 -10 4 -12 -8 -7 -9 3 -18 3 -21 -1 -3 -4 4 -8 14 -9
23 -2 35 13 19 23 -8 5 -9 3 -4 -6z"/>
<path d="M1185 5619 c-4 -6 -14 -8 -24 -4 -13 5 -14 4 -3 -6 10 -11 15 -10 29
4 10 9 14 17 11 17 -4 0 -10 -5 -13 -11z"/>
<path d="M5235 5609 c-4 -6 -5 -12 -2 -15 2 -3 7 2 10 11 7 17 1 20 -8 4z"/>
<path d="M1446 5577 c-26 -21 -27 -24 -11 -37 10 -8 51 -62 91 -121 92 -132
96 -136 129 -115 14 9 25 21 25 26 0 6 -28 50 -63 98 -34 48 -75 106 -91 130
-16 23 -34 42 -40 42 -6 0 -24 -10 -40 -23z"/>
<path d="M5285 5590 c-7 -11 16 -50 29 -50 5 0 1 9 -8 19 -10 11 -15 25 -11
30 3 6 4 11 1 11 -3 0 -7 -4 -11 -10z"/>
<path d="M3368 5583 c7 -3 16 -2 19 1 4 3 -2 6 -13 5 -11 0 -14 -3 -6 -6z"/>
<path d="M4704 5580 c-30 -12 -71 -64 -79 -100 -16 -72 57 -160 132 -160 32 0
34 2 31 28 -2 21 -9 28 -29 30 -35 4 -72 44 -67 72 3 20 8 19 73 -29 38 -28
73 -51 77 -51 11 0 36 51 38 80 5 55 -1 74 -36 106 -29 28 -43 34 -77 33 -23
0 -51 -4 -63 -9z m100 -66 c17 -17 21 -50 8 -58 -10 -6 -82 41 -82 53 0 25 51
29 74 5z"/>
<path d="M5310 5581 c0 -10 19 -25 25 -20 1 2 -3 10 -11 17 -8 7 -14 8 -14 3z"/>
<path d="M2948 5573 c6 -2 18 -2 25 0 6 3 1 5 -13 5 -14 0 -19 -2 -12 -5z"/>
<path d="M3438 5573 c7 -3 16 -2 19 1 4 3 -2 6 -13 5 -11 0 -14 -3 -6 -6z"/>
<path d="M3558 5573 c7 -3 16 -2 19 1 4 3 -2 6 -13 5 -11 0 -14 -3 -6 -6z"/>
<path d="M1090 5555 c-11 -13 -10 -14 4 -9 9 3 16 10 16 15 0 13 -6 11 -20 -6z"/>
<path d="M3585 5560 c-13 -6 -15 -9 -5 -9 8 0 22 4 30 9 18 12 2 12 -25 0z"/>
<path d="M2792 5551 c-11 -7 -10 -9 3 -14 9 -4 14 -3 10 2 -3 5 1 12 7 14 7 3
9 6 3 6 -5 0 -16 -3 -23 -8z"/>
<path d="M3670 5550 c8 -5 26 -10 39 -10 32 0 24 6 -19 14 -25 4 -31 3 -20 -4z"/>
<path d="M1024 5528 l-19 -23 23 19 c21 18 27 26 19 26 -2 0 -12 -10 -23 -22z"/>
<path d="M3628 5543 c7 -3 16 -2 19 1 4 3 -2 6 -13 5 -11 0 -14 -3 -6 -6z"/>
<path d="M5340 5539 c-12 -8 -11 -9 5 -7 12 2 19 -2 17 -10 -1 -8 2 -11 8 -7
8 5 7 11 -1 21 -14 17 -10 16 -29 3z"/>
<path d="M3888 5503 c7 -3 16 -2 19 1 4 3 -2 6 -13 5 -11 0 -14 -3 -6 -6z"/>
<path d="M5390 5506 c0 -2 8 -10 18 -17 15 -13 16 -12 3 4 -13 16 -21 21 -21
13z"/>
<path d="M985 5490 c-3 -5 -1 -10 4 -10 6 0 11 5 11 10 0 6 -2 10 -4 10 -3 0
-8 -4 -11 -10z"/>
<path d="M2540 5496 c0 -2 7 -7 16 -10 8 -3 12 -2 9 4 -6 10 -25 14 -25 6z"/>
<path d="M2508 5483 c7 -3 16 -2 19 1 4 3 -2 6 -13 5 -11 0 -14 -3 -6 -6z"/>
<path d="M3950 5480 c8 -5 22 -9 30 -9 10 0 8 3 -5 9 -27 12 -43 12 -25 0z"/>
<path d="M944 5448 l-19 -23 23 19 c21 18 27 26 19 26 -2 0 -12 -10 -23 -22z"/>
<path d="M3990 5460 c-8 -5 -10 -10 -5 -10 6 0 17 5 25 10 8 5 11 10 5 10 -5
0 -17 -5 -25 -10z"/>
<path d="M5440 5461 c0 -10 19 -25 25 -20 1 2 -3 10 -11 17 -8 7 -14 8 -14 3z"/>
<path d="M5397 5439 c7 -7 15 -10 18 -7 3 3 -2 9 -12 12 -14 6 -15 5 -6 -5z"/>
<path d="M4076 5408 c3 -5 10 -6 15 -3 13 9 11 12 -6 12 -8 0 -12 -4 -9 -9z"/>
<path d="M4128 5413 c-10 -2 -18 -8 -18 -13 0 -19 35 -28 48 -14 12 13 9 14
-15 9 l-28 -6 25 15 c25 15 21 18 -12 9z"/>
<path d="M5480 5416 c0 -2 8 -10 18 -17 15 -13 16 -12 3 4 -13 16 -21 21 -21
13z"/>
<path d="M5132 5388 l-22 -22 37 -38 36 -37 -89 -91 c-49 -50 -90 -94 -92 -99
-1 -4 9 -18 23 -31 l25 -23 94 99 94 99 36 -35 36 -34 22 22 23 22 -95 95
c-52 52 -97 95 -100 95 -3 0 -16 -10 -28 -22z"/>
<path d="M2237 5389 c7 -7 15 -10 18 -7 3 3 -2 9 -12 12 -14 6 -15 5 -6 -5z"/>
<path d="M859 5363 c-13 -16 -12 -17 4 -4 16 13 21 21 13 21 -2 0 -10 -8 -17
-17z"/>
<path d="M5515 5370 c-4 -6 -1 -9 7 -8 8 2 12 -4 10 -14 -3 -22 4 -24 11 -4 7
18 -18 42 -28 26z"/>
<path d="M2165 5340 c-3 -6 1 -7 9 -4 18 7 21 14 7 14 -6 0 -13 -4 -16 -10z"/>
<path d="M4125 5289 c-107 -55 -263 -156 -333 -217 l-42 -37 49 -26 50 -26 58
47 c33 26 85 64 116 84 70 45 294 156 316 157 10 0 8 4 -7 10 -13 5 -21 13
-18 18 6 10 -10 25 -36 34 -29 10 -21 -3 8 -14 15 -5 24 -12 21 -16 -3 -3 -22
4 -42 16 -20 11 -37 21 -38 21 -1 0 -47 -23 -102 -51z"/>
<path d="M5563 5312 c-1 -22 0 -24 9 -8 6 10 6 22 2 26 -5 5 -10 -3 -11 -18z"/>
<path d="M857 5302 c-15 -16 -15 -18 1 -18 10 0 18 8 18 18 0 10 -1 18 -2 18
0 0 -8 -8 -17 -18z"/>
<path d="M2086 5312 c-2 -4 4 -8 14 -8 10 0 16 4 14 8 -3 4 -9 8 -14 8 -5 0
-11 -4 -14 -8z"/>
<path d="M3347 5309 c-21 -5 -47 -13 -57 -19 -25 -13 -46 -78 -31 -93 6 -6 11
-23 11 -38 0 -15 5 -31 11 -35 7 -4 8 -20 4 -41 -4 -20 -2 -40 5 -48 9 -10 6
-15 -12 -20 -13 -4 -34 -15 -48 -25 -14 -9 -65 -39 -115 -65 -97 -52 -224
-137 -267 -180 -25 -25 -31 -26 -85 -20 -32 4 -96 18 -143 31 -128 37 -207 46
-296 33 -59 -8 -93 -7 -143 2 -68 13 -141 50 -141 72 0 8 -4 7 -10 -3 -5 -8
-10 -41 -10 -72 0 -45 3 -58 18 -62 32 -9 127 -20 147 -18 11 2 46 -2 78 -9
44 -9 61 -17 67 -33 12 -32 29 -42 88 -55 30 -6 99 -29 155 -50 285 -110 410
-162 479 -196 64 -32 77 -43 88 -74 7 -20 28 -60 46 -88 38 -60 67 -124 59
-131 -3 -3 -50 -6 -106 -6 -95 -1 -103 1 -116 22 -19 28 -59 29 -93 2 -17 -13
-41 -20 -73 -20 -55 0 -121 -24 -115 -42 6 -18 71 -34 186 -47 57 -7 165 -28
240 -47 110 -28 158 -36 245 -37 108 -2 109 -2 133 26 13 16 24 41 24 57 0 16
-25 104 -55 195 -30 92 -55 169 -55 171 0 13 49 -25 116 -88 58 -56 77 -69 87
-59 9 9 -9 33 -85 107 l-97 96 52 69 c45 61 55 69 84 69 25 0 41 -9 70 -40
l38 -40 75 45 c105 64 130 93 130 153 0 90 -43 201 -109 279 -29 36 -48 47
-106 65 -81 25 -95 34 -95 58 0 18 -26 30 -66 30 -23 0 -34 31 -34 97 0 59
-23 98 -69 116 -46 19 -49 19 -104 6z"/>
<path d="M5531 5300 c14 -31 19 -36 19 -24 0 6 -7 19 -16 30 -14 18 -14 18 -3
-6z"/>
<path d="M793 5290 c-8 -12 -9 -21 -3 -25 6 -4 9 -1 8 7 -2 7 2 12 9 11 7 -2
10 4 7 12 -8 19 -7 19 -21 -5z"/>
<path d="M4361 5306 c2 -2 15 -9 29 -15 24 -11 24 -11 6 3 -16 13 -49 24 -35
12z"/>
<path d="M5586 5293 c-6 -14 -5 -15 5 -6 7 7 10 15 7 18 -3 3 -9 -2 -12 -12z"/>
<path d="M1211 5272 c-69 -35 -98 -112 -67 -180 46 -101 180 -108 243 -13 79
117 -50 258 -176 193z m104 -78 c32 -35 32 -67 -1 -93 -36 -28 -50 -26 -85 8
-35 36 -36 54 -4 86 31 32 60 32 90 -1z"/>
<path d="M5609 5280 c-6 -22 -5 -49 2 -44 4 2 5 12 2 22 -4 13 -1 12 17 -5 20
-19 22 -24 10 -40 -13 -17 -13 -17 5 0 19 17 19 18 -8 44 -15 15 -28 25 -28
23z"/>
<path d="M4417 5259 c7 -7 15 -10 18 -7 3 3 -2 9 -12 12 -14 6 -15 5 -6 -5z"/>
<path d="M1916 5242 c-3 -4 4 -9 15 -9 23 -2 25 3 4 10 -8 4 -16 3 -19 -1z"/>
<path d="M4465 5241 c-3 -5 -2 -12 3 -15 5 -3 9 1 9 9 0 17 -3 19 -12 6z"/>
<path d="M1833 5180 c-34 -14 -28 -21 7 -9 17 6 30 13 30 15 0 6 -12 4 -37 -6z"/>
<path d="M4405 5132 c-160 -74 -310 -168 -435 -275 l-33 -28 12 -55 c12 -51
23 -65 36 -45 12 20 193 160 258 200 87 53 225 122 304 150 48 18 60 26 50 35
-21 21 -84 56 -98 56 -8 -1 -50 -18 -94 -38z"/>
<path d="M1835 5150 c-11 -4 -33 -23 -50 -41 l-30 -34 35 33 c20 17 41 32 47
32 7 0 15 5 18 10 7 12 7 12 -20 0z"/>
<path d="M657 5131 c-10 -14 -10 -14 4 -4 9 7 18 10 21 7 3 -3 8 -1 12 4 9 16
-24 9 -37 -7z"/>
<path d="M4642 5124 c10 -10 20 -16 22 -13 3 3 -5 11 -17 18 -21 13 -21 12 -5
-5z"/>
<path d="M5720 5130 c-12 -7 -10 -9 7 -7 12 0 19 5 17 9 -6 10 -6 10 -24 -2z"/>
<path d="M922 5118 c-7 -7 -12 -20 -12 -29 0 -10 -14 -26 -30 -36 -17 -9 -33
-25 -36 -35 -7 -23 4 -78 16 -78 23 0 40 14 40 34 0 13 14 30 35 45 37 25 45
54 25 92 -12 22 -21 24 -38 7z"/>
<path d="M1753 5115 c0 -8 4 -12 9 -9 5 3 6 10 3 15 -9 13 -12 11 -12 -6z"/>
<path d="M5295 5106 c-16 -24 -16 -26 19 -57 22 -19 36 -40 36 -54 0 -35 -14
-37 -33 -5 -24 41 -79 72 -111 64 -33 -8 -66 -49 -66 -81 0 -28 59 -93 84 -93
9 0 13 -6 10 -13 -3 -8 4 -24 14 -37 l20 -24 58 51 c94 81 98 88 95 150 -1 25
-40 73 -81 103 l-29 21 -16 -25z m-16 -142 c27 -34 26 -42 -4 -50 -29 -7 -65
18 -65 46 0 39 40 41 69 4z"/>
<path d="M1702 5085 c-7 -8 -9 -15 -4 -15 5 0 15 7 22 15 16 19 -1 19 -18 0z"/>
<path d="M4626 5089 c3 -5 12 -9 20 -9 8 0 14 -4 14 -10 0 -5 5 -10 11 -10 8
0 8 4 0 14 -13 16 -54 29 -45 15z"/>
<path d="M5764 5069 c-3 -6 -1 -16 5 -22 9 -9 10 -7 5 7 -6 15 -4 17 6 11 9
-5 11 -4 6 3 -9 15 -13 15 -22 1z"/>
<path d="M4715 5060 c-3 -5 -1 -10 4 -10 6 0 11 5 11 10 0 6 -2 10 -4 10 -3 0
-8 -4 -11 -10z"/>
<path d="M600 5056 c0 -2 8 -10 18 -17 15 -13 16 -12 3 4 -13 16 -21 21 -21
13z"/>
<path d="M1689 5033 c-13 -16 -12 -17 4 -4 9 7 17 15 17 17 0 8 -8 3 -21 -13z"/>
<path d="M4690 5046 c0 -2 8 -10 18 -17 15 -13 16 -12 3 4 -13 16 -21 21 -21
13z"/>
<path d="M976 5019 c-28 -22 -66 -87 -66 -114 0 -8 6 -15 14 -15 8 0 21 -3 30
-6 11 -4 16 -1 16 10 0 9 13 30 28 47 21 24 33 30 49 25 19 -6 19 -8 -13 -40
-18 -18 -36 -45 -40 -60 -15 -59 40 -115 100 -100 25 6 66 51 66 72 0 6 17 27
38 47 36 35 37 36 17 51 -11 8 -31 24 -45 34 -81 62 -96 70 -131 70 -22 0 -47
-8 -63 -21z m154 -136 c0 -18 -39 -55 -53 -50 -22 7 -19 48 4 74 22 22 24 23
36 7 7 -10 13 -24 13 -31z"/>
<path d="M4750 5030 c-9 -6 -10 -10 -3 -10 6 0 15 5 18 10 8 12 4 12 -15 0z"/>
<path d="M1610 5005 c-6 -8 -9 -19 -5 -25 4 -6 1 -19 -6 -28 -7 -9 4 -1 24 17
20 19 37 37 37 40 0 2 -9 -4 -20 -14 -11 -10 -23 -15 -27 -12 -4 4 2 14 13 22
10 8 14 15 8 15 -6 0 -17 -7 -24 -15z"/>
<path d="M5806 5005 c-9 -26 -7 -32 5 -12 6 10 9 21 6 23 -2 3 -7 -2 -11 -11z"/>
<path d="M4756 5002 c-2 -4 9 -7 25 -7 31 -1 30 7 -1 12 -10 1 -21 -1 -24 -5z"/>
<path d="M579 4973 c-13 -16 -12 -17 4 -4 9 7 17 15 17 17 0 8 -8 3 -21 -13z"/>
<path d="M4786 4971 c-4 -5 -2 -12 3 -15 5 -4 12 -2 15 3 4 5 2 12 -3 15 -5 4
-12 2 -15 -3z"/>
<path d="M1535 4901 c-22 -21 -51 -51 -65 -67 -13 -16 6 0 43 36 61 59 72 70
65 70 -2 0 -21 -18 -43 -39z"/>
<path d="M5815 4930 c3 -5 8 -10 11 -10 2 0 4 5 4 10 0 6 -5 10 -11 10 -5 0
-7 -4 -4 -10z"/>
<path d="M5860 4936 c0 -2 7 -7 16 -10 8 -3 12 -2 9 4 -6 10 -25 14 -25 6z"/>
<path d="M531 4901 c-9 -16 -8 -19 6 -17 20 3 28 21 14 30 -5 4 -15 -2 -20
-13z"/>
<path d="M5865 4900 c-4 -6 -11 -7 -17 -4 -7 4 -8 2 -4 -5 6 -9 11 -9 22 0 14
11 18 19 10 19 -3 0 -8 -5 -11 -10z"/>
<path d="M1459 4863 c-13 -16 -12 -17 4 -4 9 7 17 15 17 17 0 8 -8 3 -21 -13z"/>
<path d="M4914 4864 c-18 -14 -18 -15 4 -4 12 6 22 13 22 15 0 8 -5 6 -26 -11z"/>
<path d="M5422 4853 c-42 -20 -70 -56 -78 -99 -12 -63 52 -154 109 -154 18 0
31 43 15 49 -25 8 -58 51 -58 75 0 46 18 37 67 -33 44 -65 49 -69 68 -57 32
21 65 76 65 110 0 64 -63 126 -127 126 -15 0 -43 -8 -61 -17z m113 -77 c13
-19 14 -29 5 -45 -6 -12 -13 -21 -15 -21 -2 0 -18 20 -35 45 l-31 45 30 0 c21
0 35 -7 46 -24z"/>
<path d="M4940 4851 c0 -10 19 -25 25 -20 1 2 -3 10 -11 17 -8 7 -14 8 -14 3z"/>
<path d="M4941 4813 c19 -28 39 -36 39 -16 0 4 -3 4 -6 0 -3 -3 -17 6 -31 21
l-24 27 22 -32z"/>
<path d="M466 4813 c-6 -14 -5 -15 5 -6 7 7 10 15 7 18 -3 3 -9 -2 -12 -12z"/>
<path d="M806 4795 c-65 -65 -58 -163 14 -211 40 -26 86 -29 147 -9 18 6 23 3
29 -19 7 -30 16 -32 49 -10 l25 16 -24 31 c-20 27 -23 40 -19 85 l6 52 -32 0
c-26 0 -31 -4 -31 -24 0 -34 -37 -76 -66 -76 -30 0 -74 41 -74 70 0 20 27 54
50 62 9 3 10 14 5 36 -9 43 -35 42 -79 -3z"/>
<path d="M5926 4814 c-3 -8 -2 -12 3 -9 6 3 14 -3 20 -12 6 -11 11 -13 11 -5
0 7 -6 20 -14 27 -12 12 -15 12 -20 -1z"/>
<path d="M4986 4810 c5 -8 9 -18 9 -22 0 -3 3 -9 7 -13 3 -4 5 0 4 9 -1 9 -8
22 -16 29 -10 10 -11 9 -4 -3z"/>
<path d="M5895 4800 c3 -5 8 -10 11 -10 2 0 4 5 4 10 0 6 -5 10 -11 10 -5 0
-7 -4 -4 -10z"/>
<path d="M1390 4785 c-7 -9 -8 -15 -2 -15 5 0 12 7 16 15 3 8 4 15 2 15 -2 0
-9 -7 -16 -15z"/>
<path d="M1419 4773 l-24 -28 28 24 c25 23 32 31 24 31 -2 0 -14 -12 -28 -27z"/>
<path d="M425 4769 c-4 -6 -5 -12 -2 -15 2 -3 7 2 10 11 7 17 1 20 -8 4z"/>
<path d="M4999 4748 c14 -16 25 -28 27 -28 1 0 8 8 15 18 11 14 11 15 -1 5
-11 -10 -19 -9 -39 10 l-26 22 24 -27z"/>
<path d="M1356 4708 c3 -5 10 -6 15 -3 13 9 11 12 -6 12 -8 0 -12 -4 -9 -9z"/>
<path d="M1310 4695 c-7 -9 -10 -18 -7 -21 3 -3 10 4 17 15 13 25 8 27 -10 6z"/>
<path d="M5082 4690 c7 -11 17 -20 22 -20 5 0 1 9 -9 20 -10 11 -20 20 -22 20
-2 0 2 -9 9 -20z"/>
<path d="M361 4657 c-13 -21 -12 -21 5 -5 10 10 16 20 13 22 -3 3 -11 -5 -18
-17z"/>
<path d="M5060 4678 c0 -4 7 -16 15 -25 8 -10 22 -27 31 -38 8 -11 13 -14 9
-7 -4 7 -2 19 5 27 8 9 8 15 0 20 -6 4 -10 3 -9 -2 4 -25 -4 -25 -26 2 -13 17
-24 27 -25 23z"/>
<path d="M5625 4593 c-82 -41 -151 -77 -153 -78 -2 -2 4 -17 13 -35 12 -23 21
-30 33 -25 89 38 94 34 57 -38 -26 -49 -27 -57 -16 -86 17 -39 27 -39 49 0 9
17 29 50 44 74 l27 44 62 -19 c35 -11 65 -18 66 -16 2 2 -4 19 -15 37 -15 27
-30 38 -77 53 l-59 19 77 38 c42 22 77 43 77 49 0 14 -22 60 -29 59 -3 0 -73
-34 -156 -76z"/>
<path d="M6025 4660 c-4 -6 -11 -7 -17 -4 -7 4 -8 2 -4 -5 6 -9 11 -9 22 0 14
11 18 19 10 19 -3 0 -8 -5 -11 -10z"/>
<path d="M1284 4620 c0 -13 4 -16 10 -10 7 7 7 13 0 20 -6 6 -10 3 -10 -10z"/>
<path d="M5140 4616 c0 -2 8 -10 18 -17 15 -13 16 -12 3 4 -13 16 -21 21 -21
13z"/>
<path d="M1235 4600 c-3 -5 -1 -10 4 -10 6 0 11 5 11 10 0 6 -2 10 -4 10 -3 0
-8 -4 -11 -10z"/>
<path d="M5125 4580 c3 -5 8 -10 11 -10 2 0 4 5 4 10 0 6 -5 10 -11 10 -5 0
-7 -4 -4 -10z"/>
<path d="M6020 4581 c0 -6 4 -13 10 -16 6 -3 7 1 4 9 -7 18 -14 21 -14 7z"/>
<path d="M6046 4577 c3 -10 9 -15 12 -12 3 3 0 11 -7 18 -10 9 -11 8 -5 -6z"/>
<path d="M6070 4581 c0 -6 4 -13 10 -16 6 -3 7 1 4 9 -7 18 -14 21 -14 7z"/>
<path d="M1247 4561 c-4 -17 -3 -21 5 -13 5 5 8 16 6 23 -3 8 -7 3 -11 -10z"/>
<path d="M667 4539 c-22 -13 -67 -104 -67 -136 0 -13 6 -23 14 -23 8 0 21 -2
28 -5 9 -4 17 8 26 39 7 26 20 50 32 56 32 17 43 2 21 -29 -11 -16 -23 -46
-27 -69 -5 -35 -3 -44 19 -66 27 -27 65 -33 98 -16 22 12 49 61 49 89 0 11 11
32 25 47 14 15 25 31 25 35 0 15 -163 89 -195 89 -16 0 -38 -5 -48 -11z m149
-121 c9 -30 -15 -70 -40 -66 -27 4 -33 41 -12 73 18 27 42 24 52 -7z"/>
<path d="M5169 4533 c-13 -16 -12 -17 4 -4 9 7 17 15 17 17 0 8 -8 3 -21 -13z"/>
<path d="M6086 4525 c-9 -26 -7 -32 5 -12 6 10 9 21 6 23 -2 3 -7 -2 -11 -11z"/>
<path d="M3612 4438 c-17 -30 -32 -61 -32 -69 0 -8 15 -30 33 -47 l34 -33 40
68 40 67 -24 13 c-14 7 -32 22 -41 33 -17 21 -18 20 -50 -32z"/>
<path d="M1155 4472 c4 -8 -1 -22 -11 -33 -9 -10 -15 -21 -12 -24 3 -3 13 6
23 21 13 21 14 29 4 38 -9 8 -10 8 -4 -2z"/>
<path d="M293 4436 c7 -15 14 -20 18 -14 4 6 1 17 -6 25 -20 20 -24 16 -12
-11z"/>
<path d="M5234 4440 c0 -11 2 -17 5 -15 2 3 11 -1 19 -8 13 -10 14 -9 4 10
-16 30 -28 35 -28 13z"/>
<path d="M6126 4447 c3 -10 9 -15 12 -12 3 3 0 11 -7 18 -10 9 -11 8 -5 -6z"/>
<path d="M250 4421 c0 -6 4 -13 10 -16 6 -3 7 1 4 9 -7 18 -14 21 -14 7z"/>
<path d="M5731 4310 c-116 -95 -114 -93 -106 -130 l7 -32 82 6 c91 8 91 12 2
-60 -35 -27 -38 -33 -31 -62 6 -30 9 -32 53 -32 53 0 222 17 228 23 2 2 -2 18
-8 35 -11 27 -17 32 -38 28 -14 -3 -50 -8 -80 -12 l-55 -7 60 49 c33 26 62 49
64 50 2 2 -2 17 -9 35 l-13 31 -76 -6 -76 -6 34 27 c89 71 86 67 72 102 -8 17
-16 31 -20 30 -3 0 -44 -31 -90 -69z"/>
<path d="M6171 4334 c0 -11 3 -14 6 -6 3 7 2 16 -1 19 -3 4 -6 -2 -5 -13z"/>
<path d="M217 4334 c-3 -5 1 -15 9 -22 16 -14 18 -5 5 17 -5 7 -11 9 -14 5z"/>
<path d="M440 4295 c-7 -20 -10 -37 -8 -39 1 -1 15 -7 29 -13 25 -11 27 -9 42
27 13 35 13 39 -2 43 -9 3 -23 8 -32 12 -13 5 -20 -2 -29 -30z"/>
<path d="M5312 4310 c-7 -12 -8 -20 -2 -20 5 0 10 6 10 13 0 8 4 7 10 -3 5 -8
10 -10 10 -5 0 6 -4 15 -8 22 -6 9 -11 7 -20 -7z"/>
<path d="M1080 4305 c-7 -9 -11 -17 -9 -20 3 -2 10 5 17 15 14 24 10 26 -8 5z"/>
<path d="M526 4258 c-3 -17 -5 -33 -3 -34 2 -2 54 -23 117 -47 l115 -45 14 35
c7 18 12 35 10 37 -7 5 -230 86 -238 86 -5 0 -11 -14 -15 -32z"/>
<path d="M5330 4261 c0 -6 4 -13 10 -16 6 -3 7 1 4 9 -7 18 -14 21 -14 7z"/>
<path d="M6155 4250 c-3 -5 -1 -10 4 -10 6 0 11 5 11 10 0 6 -2 10 -4 10 -3 0
-8 -4 -11 -10z"/>
<path d="M3532 4240 c3 -8 13 -40 23 -70 l18 -55 14 34 c14 34 14 35 -23 70
-20 20 -34 29 -32 21z"/>
<path d="M1021 4223 c-1 -6 -4 -20 -7 -30 -5 -17 -5 -17 6 0 6 10 9 23 6 30
-3 9 -5 9 -5 0z"/>
<path d="M171 4184 c0 -11 3 -14 6 -6 3 7 2 16 -1 19 -3 4 -6 -2 -5 -13z"/>
<path d="M5406 4143 c-6 -14 -5 -15 5 -6 7 7 10 15 7 18 -3 3 -9 -2 -12 -12z"/>
<path d="M488 4127 c-15 -14 -32 -43 -39 -65 -10 -35 -9 -48 6 -87 20 -54 49
-76 108 -82 81 -9 147 50 147 130 0 57 -15 79 -44 66 -19 -9 -23 -18 -22 -54
1 -33 -4 -48 -19 -59 -66 -50 -156 44 -95 99 24 22 24 24 2 53 l-18 23 -26
-24z"/>
<path d="M975 4130 c-3 -5 -1 -10 4 -10 6 0 11 5 11 10 0 6 -2 10 -4 10 -3 0
-8 -4 -11 -10z"/>
<path d="M1006 4127 c3 -10 9 -15 12 -12 3 3 0 11 -7 18 -10 9 -11 8 -5 -6z"/>
<path d="M5400 4090 c6 -11 13 -20 16 -20 2 0 0 9 -6 20 -6 11 -13 20 -16 20
-2 0 0 -9 6 -20z"/>
<path d="M966 4082 c-3 -5 1 -9 9 -9 8 0 12 4 9 9 -3 4 -7 8 -9 8 -2 0 -6 -4
-9 -8z"/>
<path d="M5450 4045 c0 -5 5 -17 10 -25 5 -8 10 -10 10 -5 0 6 -5 17 -10 25
-5 8 -10 11 -10 5z"/>
<path d="M5478 3937 c-3 -19 -2 -25 4 -19 6 6 8 18 6 28 -3 14 -5 12 -10 -9z"/>
<path d="M920 3925 c0 -5 5 -17 10 -25 5 -8 10 -10 10 -5 0 6 -5 17 -10 25 -5
8 -10 11 -10 5z"/>
<path d="M5830 3923 c-28 -10 -69 -56 -80 -89 -8 -23 -8 -44 -1 -72 22 -78 78
-119 150 -109 53 7 87 34 107 85 27 68 -2 144 -68 178 -27 14 -80 17 -108 7z
m84 -74 c53 -24 39 -109 -19 -123 -29 -8 -72 14 -82 41 -9 24 10 66 37 80 31
16 33 16 64 2z"/>
<path d="M906 3897 c3 -10 9 -15 12 -12 3 3 0 11 -7 18 -10 9 -11 8 -5 -6z"/>
<path d="M3166 3863 c-3 -15 -8 -46 -12 -68 -3 -22 -8 -48 -11 -57 -4 -16 3
-18 50 -18 l55 0 12 71 c13 75 8 88 -30 89 -8 0 -25 3 -37 6 -17 5 -22 1 -27
-23z"/>
<path d="M3414 3852 c-10 -6 -34 -94 -34 -122 0 -6 24 -10 54 -10 l53 0 6 45
c4 25 9 56 13 70 6 24 4 25 -37 25 -24 0 -49 -4 -55 -8z"/>
<path d="M455 3836 c-52 -23 -78 -60 -82 -118 -5 -63 9 -94 56 -125 51 -34
111 -31 155 7 82 72 66 196 -30 236 -41 17 -60 17 -99 0z m99 -85 c26 -28 18
-82 -15 -100 -71 -39 -140 47 -83 104 22 21 77 19 98 -4z"/>
<path d="M881 3834 c0 -11 3 -14 6 -6 3 7 2 16 -1 19 -3 4 -6 -2 -5 -13z"/>
<path d="M6331 3794 c0 -11 3 -14 6 -6 3 7 2 16 -1 19 -3 4 -6 -2 -5 -13z"/>
<path d="M851 3714 c0 -11 3 -14 6 -6 3 7 2 16 -1 19 -3 4 -6 -2 -5 -13z"/>
<path d="M61 3684 c0 -11 3 -14 6 -6 3 7 2 16 -1 19 -3 4 -6 -2 -5 -13z"/>
<path d="M1560 3560 l0 -130 35 0 c20 0 35 -5 35 -11 0 -10 -93 -317 -226
-746 l-35 -113 -70 0 -69 0 0 -130 0 -130 313 0 c173 0 316 2 318 4 2 2 3 61
1 130 l-3 125 -73 3 -72 3 18 63 19 62 206 -2 206 -3 12 -35 c7 -19 15 -47 19
-62 l6 -27 -92 -3 -93 -3 0 -128 0 -127 345 -1 c190 0 369 0 398 1 l52 0 0
130 0 130 -65 -1 c-36 -1 -68 1 -71 3 -2 3 -76 236 -165 519 -88 283 -167 535
-175 562 l-16 47 -379 0 -379 0 0 -130z m494 -517 l34 -113 -129 0 c-71 0
-129 3 -129 8 0 4 28 101 62 216 l63 210 33 -105 c18 -57 48 -155 66 -216z"/>
<path d="M2890 3560 l0 -130 65 0 65 0 0 -435 0 -435 -65 0 -65 0 0 -129 c0
-140 -1 -139 60 -135 19 1 162 3 318 3 l282 1 0 130 0 130 -60 0 -60 0 0 435
0 435 60 0 60 0 0 130 0 130 -330 0 -330 0 0 -130z"/>
<path d="M3640 3430 l0 -260 145 0 145 0 0 130 0 130 85 0 85 0 0 -435 0 -435
-80 0 -80 0 0 -130 0 -130 370 0 370 0 0 130 0 130 -85 0 -85 0 0 435 0 435
85 0 85 0 0 -130 0 -130 145 0 145 0 0 260 0 260 -665 0 -665 0 0 -260z"/>
<path d="M6331 3674 c0 -11 3 -14 6 -6 3 7 2 16 -1 19 -3 4 -6 -2 -5 -13z"/>
<path d="M92 3655 c0 -16 2 -22 5 -12 2 9 2 23 0 30 -3 6 -5 -1 -5 -18z"/>
<path d="M5551 3664 c0 -11 3 -14 6 -6 3 7 2 16 -1 19 -3 4 -6 -2 -5 -13z"/>
<path d="M6321 3634 c0 -11 3 -14 6 -6 3 7 2 16 -1 19 -3 4 -6 -2 -5 -13z"/>
<path d="M6336 3597 c3 -10 9 -15 12 -12 3 3 0 11 -7 18 -10 9 -11 8 -5 -6z"/>
<path d="M5915 3588 c-66 -5 -121 -11 -122 -12 -1 -1 0 -18 3 -38 l6 -35 87 5
c71 4 89 2 100 -11 35 -44 -13 -77 -111 -77 l-68 0 0 -41 0 -41 88 7 c104 8
149 20 162 45 17 31 12 85 -10 108 -17 18 -18 22 -5 22 13 0 15 8 13 37 -2 20
-7 37 -13 38 -5 1 -64 -2 -130 -7z"/>
<path d="M5562 3525 c0 -16 2 -22 5 -12 2 9 2 23 0 30 -3 6 -5 -1 -5 -18z"/>
<path d="M6331 3534 c0 -11 3 -14 6 -6 3 7 2 16 -1 19 -3 4 -6 -2 -5 -13z"/>
<path d="M826 3525 c-9 -26 -7 -32 5 -12 6 10 9 21 6 23 -2 3 -7 -2 -11 -11z"/>
<path d="M344 3465 c-23 -61 -8 -117 36 -135 50 -21 78 -6 106 55 27 58 54 73
54 30 0 -15 -7 -40 -16 -56 -14 -29 -14 -32 3 -45 27 -20 32 -18 53 29 34 74
21 136 -33 158 -42 17 -75 -3 -106 -64 -35 -71 -72 -54 -39 19 11 23 10 28 -7
40 -28 21 -32 18 -51 -31z"/>
<path d="M6361 3374 c0 -11 3 -14 6 -6 3 7 2 16 -1 19 -3 4 -6 -2 -5 -13z"/>
<path d="M10 3375 c0 -5 5 -17 10 -25 5 -8 10 -10 10 -5 0 6 -5 17 -10 25 -5
8 -10 11 -10 5z"/>
<path d="M41 3294 c0 -11 3 -14 6 -6 3 7 2 16 -1 19 -3 4 -6 -2 -5 -13z"/>
<path d="M5874 3266 c-31 -14 -64 -67 -64 -103 0 -10 7 -30 14 -45 13 -24 13
-28 0 -28 -10 0 -14 -12 -14 -40 l0 -40 103 0 c57 0 138 -3 180 -6 l77 -7 0
42 0 41 -61 0 -60 0 15 22 c18 25 21 74 6 112 -21 57 -122 84 -196 52z m106
-71 c37 -19 46 -49 26 -80 -32 -49 -109 -40 -123 13 -7 30 5 53 38 69 30 16
25 16 59 -2z"/>
<path d="M484 3259 c-27 -9 -39 -27 -54 -74 -16 -51 -26 -63 -42 -47 -9 9 -9
22 -1 52 9 36 8 42 -8 50 -30 16 -36 12 -49 -34 -9 -34 -9 -52 0 -80 13 -41
35 -56 79 -56 38 0 55 18 76 80 10 29 22 49 28 47 17 -5 20 -62 6 -88 -10 -19
-9 -25 7 -36 26 -19 29 -17 49 27 41 91 -14 188 -91 159z"/>
<path d="M6382 3195 c0 -16 2 -22 5 -12 2 9 2 23 0 30 -3 6 -5 -1 -5 -18z"/>
<path d="M2982 3070 c-5 -32 -132 -334 -171 -404 -23 -41 -41 -78 -41 -81 0
-3 16 -5 35 -5 34 0 35 -1 36 -37 l0 -38 22 40 c12 22 46 88 75 147 l53 106
-4 143 c-1 79 -4 137 -5 129z"/>
<path d="M31 3024 c0 -11 3 -14 6 -6 3 7 2 16 -1 19 -3 4 -6 -2 -5 -13z"/>
<path d="M415 2941 l-150 -88 3 -34 c2 -19 5 -34 5 -35 1 0 80 -23 175 -51
l172 -50 0 38 c0 36 -2 39 -35 45 -45 8 -51 18 -58 91 l-5 63 35 21 c28 18 34
26 31 52 -2 17 -7 32 -13 33 -5 1 -77 -37 -160 -85z m50 -97 c3 -20 4 -38 2
-40 -7 -8 -97 18 -97 27 0 8 67 48 81 49 4 0 10 -16 14 -36z"/>
<path d="M6341 2974 c0 -11 3 -14 6 -6 3 7 2 16 -1 19 -3 4 -6 -2 -5 -13z"/>
<path d="M5853 2930 c-40 -24 -66 -73 -66 -126 0 -84 65 -141 151 -131 134 15
160 210 35 263 -45 19 -82 17 -120 -6z m120 -82 c9 -11 17 -29 17 -40 0 -24
-43 -68 -68 -68 -28 0 -72 38 -72 61 0 69 78 99 123 47z"/>
<path d="M5580 2891 c0 -6 4 -13 10 -16 6 -3 7 1 4 9 -7 18 -14 21 -14 7z"/>
<path d="M6366 2883 c-6 -14 -5 -15 5 -6 7 7 10 15 7 18 -3 3 -9 -2 -12 -12z"/>
<path d="M85 2799 c-4 -6 -5 -12 -2 -15 2 -3 7 2 10 11 7 17 1 20 -8 4z"/>
<path d="M6331 2794 c0 -11 3 -14 6 -6 3 7 2 16 -1 19 -3 4 -6 -2 -5 -13z"/>
<path d="M851 2764 c0 -11 3 -14 6 -6 3 7 2 16 -1 19 -3 4 -6 -2 -5 -13z"/>
<path d="M70 2761 c0 -6 4 -13 10 -16 6 -3 7 1 4 9 -7 18 -14 21 -14 7z"/>
<path d="M6321 2754 c0 -11 3 -14 6 -6 3 7 2 16 -1 19 -3 4 -6 -2 -5 -13z"/>
<path d="M56 2723 c-6 -14 -5 -15 5 -6 7 7 10 15 7 18 -3 3 -9 -2 -12 -12z"/>
<path d="M860 2731 c0 -6 4 -13 10 -16 6 -3 7 1 4 9 -7 18 -14 21 -14 7z"/>
<path d="M6291 2655 c1 -19 18 -51 18 -35 0 8 -4 22 -9 30 -5 8 -9 11 -9 5z"/>
<path d="M61 2604 c0 -11 3 -14 6 -6 3 7 2 16 -1 19 -3 4 -6 -2 -5 -13z"/>
<path d="M896 2543 c-6 -14 -5 -15 5 -6 7 7 10 15 7 18 -3 3 -9 -2 -12 -12z"/>
<path d="M111 2514 c0 -11 3 -14 6 -6 3 7 2 16 -1 19 -3 4 -6 -2 -5 -13z"/>
<path d="M6261 2514 c0 -11 3 -14 6 -6 3 7 2 16 -1 19 -3 4 -6 -2 -5 -13z"/>
<path d="M5501 2484 c0 -11 3 -14 6 -6 3 7 2 16 -1 19 -3 4 -6 -2 -5 -13z"/>
<path d="M116 2482 c-3 -5 1 -9 9 -9 8 0 12 4 9 9 -3 4 -7 8 -9 8 -2 0 -6 -4
-9 -8z"/>
<path d="M6261 2390 c0 -8 4 -22 9 -30 12 -18 12 -2 0 25 -6 13 -9 15 -9 5z"/>
<path d="M5451 2354 c0 -11 3 -14 6 -6 3 7 2 16 -1 19 -3 4 -6 -2 -5 -13z"/>
<path d="M130 2331 c0 -6 4 -13 10 -16 6 -3 7 1 4 9 -7 18 -14 21 -14 7z"/>
<path d="M976 2323 c-6 -14 -5 -15 5 -6 7 7 10 15 7 18 -3 3 -9 -2 -12 -12z"/>
<path d="M171 2314 c0 -11 3 -14 6 -6 3 7 2 16 -1 19 -3 4 -6 -2 -5 -13z"/>
<path d="M6250 2321 c0 -6 4 -13 10 -16 6 -3 7 1 4 9 -7 18 -14 21 -14 7z"/>
<path d="M990 2301 c0 -6 4 -13 10 -16 6 -3 7 1 4 9 -7 18 -14 21 -14 7z"/>
<path d="M195 2279 c-4 -6 -5 -12 -2 -15 2 -3 7 2 10 11 7 17 1 20 -8 4z"/>
<path d="M2550 2263 c-8 -3 -52 -40 -97 -82 -200 -188 -459 -322 -883 -457
-90 -29 -166 -56 -167 -61 -2 -5 8 -22 21 -38 14 -16 22 -33 19 -38 -3 -6 -1
-7 5 -3 8 5 11 0 9 -15 -1 -16 4 -22 20 -24 12 -1 20 2 17 7 -4 5 -12 7 -20 4
-17 -7 -18 8 -1 22 6 5 65 27 130 47 161 50 307 105 440 167 124 58 328 178
338 199 4 8 12 26 18 42 8 22 17 27 43 27 35 1 68 19 68 38 0 6 10 16 23 23
26 13 137 131 132 140 -5 7 -96 9 -115 2z"/>
<path d="M2852 2208 c-26 -34 -64 -81 -85 -106 -25 -29 -36 -50 -32 -62 3 -10
9 -37 13 -60 l7 -43 70 75 c65 69 167 206 181 241 4 11 -6 15 -50 16 l-56 1
-48 -62z"/>
<path d="M5401 2234 c0 -11 3 -14 6 -6 3 7 2 16 -1 19 -3 4 -6 -2 -5 -13z"/>
<path d="M202 2220 c0 -14 2 -19 5 -12 2 6 2 18 0 25 -3 6 -5 1 -5 -13z"/>
<path d="M1021 2194 c0 -11 3 -14 6 -6 3 7 2 16 -1 19 -3 4 -6 -2 -5 -13z"/>
<path d="M1047 2177 c-3 -8 1 -14 8 -14 7 0 11 6 8 14 -3 7 -6 13 -8 13 -2 0
-5 -6 -8 -13z"/>
<path d="M5340 2181 c0 -6 4 -13 10 -16 6 -3 7 1 4 9 -7 18 -14 21 -14 7z"/>
<path d="M1055 2140 c3 -5 8 -10 11 -10 2 0 4 5 4 10 0 6 -5 10 -11 10 -5 0
-7 -4 -4 -10z"/>
<path d="M5320 2116 c0 -8 4 -17 9 -20 5 -4 7 3 4 14 -6 23 -13 26 -13 6z"/>
<path d="M1090 2101 c0 -6 4 -13 10 -16 6 -3 7 1 4 9 -7 18 -14 21 -14 7z"/>
<path d="M260 2091 c0 -6 4 -13 10 -16 6 -3 7 1 4 9 -7 18 -14 21 -14 7z"/>
<path d="M6146 2083 c-6 -14 -5 -15 5 -6 7 7 10 15 7 18 -3 3 -9 -2 -12 -12z"/>
<path d="M2572 2081 c-11 -6 -6 -17 19 -46 27 -30 34 -47 37 -94 5 -74 -12
-141 -37 -141 -26 0 -31 19 -31 110 0 87 0 87 -77 100 -24 4 -43 3 -43 -1 0
-9 25 -36 38 -41 5 -1 12 -57 15 -124 l5 -121 -77 -18 c-42 -10 -82 -20 -88
-22 -9 -4 -13 7 -13 35 0 43 1 44 68 57 34 7 38 15 21 47 -13 23 -46 20 -138
-14 l-55 -21 28 -22 c27 -21 27 -24 15 -64 -9 -31 -9 -47 -1 -66 15 -33 46
-33 146 0 42 14 81 25 86 25 5 0 12 -20 16 -45 3 -25 10 -47 14 -50 14 -9 40
75 40 130 0 55 0 55 28 49 15 -4 28 -8 29 -9 2 -1 7 -53 12 -116 15 -175 27
-208 51 -126 16 56 26 492 11 529 -16 43 -89 79 -119 59z"/>
<path d="M3246 2072 c-3 -5 8 -22 24 -37 42 -40 53 -83 45 -170 -6 -71 -8 -74
-37 -84 -17 -6 -42 -11 -55 -11 -31 0 -42 -29 -17 -47 17 -13 52 -14 94 -2 12
3 16 -11 20 -71 l5 -75 19 28 c31 46 46 133 46 280 l0 139 -29 29 c-23 22 -39
29 -70 29 -22 0 -42 -4 -45 -8z"/>
<path d="M3030 2009 c-24 -11 -53 -27 -62 -36 -17 -15 -17 -17 -2 -35 22 -24
48 -23 83 3 23 17 32 19 50 10 23 -13 26 -27 12 -64 -12 -31 -58 -52 -148 -67
-40 -6 -73 -16 -73 -20 0 -5 8 -16 17 -26 14 -13 28 -15 76 -10 l59 6 -6 -33
c-23 -128 -20 -137 28 -92 34 32 59 91 52 121 -5 19 -2 25 19 29 14 3 36 7 50
10 55 12 38 59 -17 52 -35 -4 -35 3 -3 33 41 39 30 97 -25 125 -38 20 -56 19
-110 -6z"/>
<path d="M3940 2000 c-30 -11 -85 -19 -122 -19 -36 -1 -73 -4 -82 -7 -28 -11
-18 -43 18 -60 33 -16 33 -17 29 -74 -4 -44 -1 -64 13 -85 17 -26 20 -27 83
-20 36 3 94 11 129 17 59 10 62 11 62 39 0 39 -32 46 -126 25 -115 -25 -118
-24 -110 27 12 73 27 87 99 88 84 0 131 17 135 48 7 44 -36 51 -128 21z"/>
<path d="M6137 2007 c-3 -8 1 -14 8 -14 7 0 11 6 8 14 -3 7 -6 13 -8 13 -2 0
-5 -6 -8 -13z"/>
<path d="M290 1995 c-7 -9 -11 -17 -9 -20 3 -2 10 5 17 15 14 24 10 26 -8 5z"/>
<path d="M1141 1982 c-7 -13 -5 -26 8 -45 l17 -26 13 22 c13 20 13 21 -2 9
-13 -11 -17 -10 -25 5 -7 11 -7 24 -1 35 5 10 7 18 5 18 -3 0 -10 -8 -15 -18z"/>
<path d="M6091 1974 c0 -11 3 -14 6 -6 3 7 2 16 -1 19 -3 4 -6 -2 -5 -13z"/>
<path d="M6122 1960 c0 -14 2 -19 5 -12 2 6 2 18 0 25 -3 6 -5 1 -5 -13z"/>
<path d="M295 1943 c-7 -28 -7 -28 -16 -5 -13 34 -19 26 -7 -9 6 -17 14 -27
19 -22 9 10 23 63 16 63 -3 0 -8 -12 -12 -27z"/>
<path d="M331 1874 c0 -11 3 -14 6 -6 3 7 2 16 -1 19 -3 4 -6 -2 -5 -13z"/>
<path d="M1196 1873 c-6 -14 -5 -15 5 -6 7 7 10 15 7 18 -3 3 -9 -2 -12 -12z"/>
<path d="M314 1846 c3 -16 8 -31 11 -35 3 -3 4 7 1 23 -3 16 -8 31 -11 35 -3
3 -4 -7 -1 -23z"/>
<path d="M1226 1862 c-3 -5 1 -9 9 -9 8 0 12 4 9 9 -3 4 -7 8 -9 8 -2 0 -6 -4
-9 -8z"/>
<path d="M356 1843 c-6 -14 -5 -15 5 -6 7 7 10 15 7 18 -3 3 -9 -2 -12 -12z"/>
<path d="M6054 1852 c3 -5 0 -13 -6 -15 -9 -4 -10 -6 -1 -6 17 -1 25 16 12 25
-7 4 -9 3 -5 -4z"/>
<path d="M6070 1819 c-12 -16 -21 -32 -18 -34 2 -2 13 12 26 31 28 42 21 45
-8 3z"/>
<path d="M5137 1823 c-4 -3 -7 -11 -7 -17 0 -6 5 -5 12 2 6 6 9 14 7 17 -3 3
-9 2 -12 -2z"/>
<path d="M336 1805 c-3 -8 -1 -15 4 -15 6 0 10 7 10 15 0 8 -2 15 -4 15 -2 0
-6 -7 -10 -15z"/>
<path d="M5087 1763 c-2 -4 5 -17 16 -28 l20 -20 -13 25 c-16 32 -17 33 -23
23z"/>
<path d="M383 1735 c-3 -9 -3 -18 -1 -21 3 -3 8 4 11 16 6 23 -1 27 -10 5z"/>
<path d="M1325 1726 c10 -14 19 -26 22 -26 7 0 -17 39 -28 46 -6 3 -3 -5 6
-20z"/>
<path d="M3890 1705 c0 -9 8 -29 19 -43 10 -15 21 -37 25 -49 6 -18 2 -24 -19
-29 -14 -3 -49 -3 -77 0 -28 4 -93 4 -144 0 -104 -7 -115 -17 -64 -54 26 -19
39 -21 93 -16 34 4 141 9 237 11 96 3 185 8 198 10 28 7 28 29 1 56 -18 18
-29 21 -73 15 -28 -3 -61 -9 -73 -12 -21 -6 -22 -3 -21 41 1 55 -14 73 -65 82
-31 5 -37 3 -37 -12z"/>
<path d="M5035 1693 c-5 -10 -7 -21 -7 -25 1 -5 -3 -8 -9 -8 -8 0 -8 -5 1 -15
15 -18 0 -20 -20 -2 -8 6 -6 2 4 -11 22 -26 28 -23 30 15 1 16 5 34 10 41 4 7
6 15 3 18 -2 3 -8 -3 -12 -13z"/>
<path d="M2105 1649 c-50 -21 -188 -71 -307 -110 l-218 -72 47 -42 c34 -31 51
-40 62 -34 9 5 75 27 146 50 146 46 385 138 385 148 -1 3 -6 27 -13 52 l-12
47 -90 -39z"/>
<path d="M5971 1633 c-10 -26 -10 -27 4 -9 8 11 15 23 15 28 0 15 -7 8 -19
-19z"/>
<path d="M1382 1624 c-7 -8 -8 -14 -3 -14 10 0 25 19 20 25 -2 1 -10 -3 -17
-11z"/>
<path d="M4980 1626 c0 -2 8 -10 18 -17 15 -13 16 -12 3 4 -13 16 -21 21 -21
13z"/>
<path d="M1405 1609 c-4 -6 -5 -12 -2 -15 2 -3 7 2 10 11 7 17 1 20 -8 4z"/>
<path d="M3080 1602 c0 -10 11 -31 25 -46 14 -15 25 -31 25 -36 0 -6 16 -28
36 -50 46 -51 85 -59 148 -31 38 16 46 24 46 47 0 29 -3 29 -132 8 l-36 -6 -7
48 c-9 69 -16 79 -64 82 -35 3 -41 0 -41 -16z"/>
<path d="M4940 1560 c6 -11 12 -20 13 -20 2 0 3 9 3 20 0 11 -6 20 -13 20 -11
0 -11 -5 -3 -20z"/>
<path d="M5860 1538 c-12 -22 -12 -22 6 -6 10 10 15 20 12 24 -4 3 -12 -5 -18
-18z"/>
<path d="M1447 1529 c7 -7 15 -10 18 -7 3 3 -2 9 -12 12 -14 6 -15 5 -6 -5z"/>
<path d="M5874 1518 c-4 -7 -4 -10 1 -6 4 4 15 2 24 -5 14 -11 14 -10 2 6 -16
20 -18 21 -27 5z"/>
<path d="M1524 1512 c4 -7 2 -21 -5 -30 -11 -14 -11 -15 1 -4 20 17 30 15 30
-7 0 -10 7 -21 15 -25 13 -5 14 -2 1 22 -8 16 -23 35 -32 43 -12 10 -15 10
-10 1z"/>
<path d="M554 1486 c-5 -12 -9 -14 -14 -6 -5 8 -9 7 -13 -3 -3 -9 0 -14 9 -13
19 3 39 24 31 32 -4 4 -10 -1 -13 -10z"/>
<path d="M4828 1468 c-25 -31 -23 -46 2 -18 11 13 20 27 20 32 0 12 -3 10 -22
-14z"/>
<path d="M536 1438 c3 -4 11 -5 19 -1 21 7 19 12 -4 10 -11 0 -18 -5 -15 -9z"/>
<path d="M5842 1441 c0 -3 0 -13 -1 -21 -1 -13 -2 -13 -11 0 -5 8 -12 12 -15
9 -3 -4 1 -11 8 -18 12 -9 18 -6 30 12 12 19 13 24 2 24 -8 0 -14 -3 -13 -6z"/>
<path d="M598 1405 c-25 -34 -22 -43 3 -11 12 15 20 29 18 31 -2 1 -12 -7 -21
-20z"/>
<path d="M4744 1399 c-3 -6 -2 -15 3 -20 5 -5 9 -1 9 11 0 23 -2 24 -12 9z"/>
<path d="M620 1385 c-7 -9 -8 -15 -2 -15 5 0 12 7 16 15 3 8 4 15 2 15 -2 0
-9 -7 -16 -15z"/>
<path d="M4780 1390 c-9 -6 -10 -10 -3 -10 6 0 15 5 18 10 8 12 4 12 -15 0z"/>
<path d="M5766 1387 c3 -10 9 -15 12 -12 3 3 0 11 -7 18 -10 9 -11 8 -5 -6z"/>
<path d="M5806 1373 c-6 -14 -5 -15 5 -6 7 7 10 15 7 18 -3 3 -9 -2 -12 -12z"/>
<path d="M4709 1363 c-12 -16 -12 -17 2 -6 9 7 20 9 24 5 5 -4 5 -1 1 6 -9 16
-11 15 -27 -5z"/>
<path d="M604 1352 c4 -3 14 -7 22 -8 9 -1 13 0 10 4 -4 3 -14 7 -22 8 -9 1
-13 0 -10 -4z"/>
<path d="M5770 1352 c0 -5 7 -9 15 -9 8 0 12 4 9 9 -3 4 -9 8 -15 8 -5 0 -9
-4 -9 -8z"/>
<path d="M620 1321 c0 -6 4 -13 10 -16 6 -3 7 1 4 9 -7 18 -14 21 -14 7z"/>
<path d="M1772 1294 c10 -10 20 -16 22 -13 3 3 -5 11 -17 18 -21 13 -21 12 -5
-5z"/>
<path d="M710 1281 c0 -4 -11 -7 -25 -6 -14 2 -23 -1 -20 -5 3 -5 12 -7 20 -3
16 6 20 -7 8 -23 -5 -5 0 -1 10 9 16 18 23 37 12 37 -3 0 -5 -4 -5 -9z"/>
<path d="M5725 1270 c3 -5 8 -10 11 -10 2 0 4 5 4 10 0 6 -5 10 -11 10 -5 0
-7 -4 -4 -10z"/>
<path d="M4575 1260 c-3 -5 -2 -10 4 -10 5 0 13 5 16 10 3 6 2 10 -4 10 -5 0
-13 -4 -16 -10z"/>
<path d="M706 1218 c3 -5 10 -6 15 -3 13 9 11 12 -6 12 -8 0 -12 -4 -9 -9z"/>
<path d="M5660 1175 c-19 -19 -30 -35 -24 -34 9 0 70 69 62 69 -2 0 -19 -16
-38 -35z"/>
<path d="M756 1185 c4 -8 11 -15 16 -15 6 0 5 6 -2 15 -7 8 -14 15 -16 15 -2
0 -1 -7 2 -15z"/>
<path d="M5630 1185 c-7 -8 -9 -15 -6 -15 4 0 14 7 22 15 9 8 11 15 6 15 -5 0
-15 -7 -22 -15z"/>
<path d="M4444 1174 c-18 -14 -18 -15 4 -4 12 6 22 13 22 15 0 8 -5 6 -26 -11z"/>
<path d="M745 1160 c10 -11 20 -20 23 -20 3 0 -3 9 -13 20 -10 11 -20 20 -23
20 -3 0 3 -9 13 -20z"/>
<path d="M1940 1170 c8 -5 20 -10 25 -10 6 0 3 5 -5 10 -8 5 -19 10 -25 10 -5
0 -3 -5 5 -10z"/>
<path d="M4490 1165 c-7 -8 -17 -12 -23 -8 -6 3 -7 1 -3 -5 5 -9 12 -8 26 1
11 6 20 15 20 19 0 12 -6 10 -20 -7z"/>
<path d="M5571 1146 l-24 -31 28 27 c16 15 27 29 24 31 -2 3 -15 -10 -28 -27z"/>
<path d="M810 1156 c0 -2 7 -9 15 -16 13 -11 14 -10 9 4 -5 14 -24 23 -24 12z"/>
<path d="M1990 1146 c0 -3 14 -12 30 -21 17 -9 30 -13 30 -11 0 3 -13 12 -30
21 -16 9 -30 13 -30 11z"/>
<path d="M4379 1138 c-10 -6 -7 -7 10 -3 17 5 21 4 16 -5 -6 -9 -3 -9 14 -1
12 7 27 9 34 5 7 -4 8 -3 4 2 -11 12 -62 14 -78 2z"/>
<path d="M791 1126 c-8 -10 -9 -16 -1 -21 5 -3 10 -5 11 -3 4 18 7 38 4 38 -1
0 -8 -6 -14 -14z"/>
<path d="M1970 1125 c7 -8 17 -15 22 -15 6 0 5 7 -2 15 -7 8 -17 15 -22 15 -6
0 -5 -7 2 -15z"/>
<path d="M5615 1120 c-4 -6 -11 -7 -17 -4 -7 4 -8 2 -4 -5 6 -9 11 -9 22 0 14
11 18 19 10 19 -3 0 -8 -5 -11 -10z"/>
<path d="M4340 1109 c0 -5 5 -7 10 -4 6 3 10 8 10 11 0 2 -4 4 -10 4 -5 0 -10
-5 -10 -11z"/>
<path d="M5540 1100 c0 -5 5 -10 11 -10 5 0 7 5 4 10 -3 6 -8 10 -11 10 -2 0
-4 -4 -4 -10z"/>
<path d="M5502 1070 c-25 -33 -27 -40 -11 -40 5 0 8 4 4 9 -3 5 -1 12 5 16 10
6 34 45 27 45 -2 0 -13 -13 -25 -30z"/>
<path d="M810 1086 c0 -2 8 -10 18 -17 15 -13 16 -12 3 4 -13 16 -21 21 -21
13z"/>
<path d="M5569 1073 c-13 -16 -12 -17 4 -4 9 7 17 15 17 17 0 8 -8 3 -21 -13z"/>
<path d="M4230 1060 c-9 -6 -10 -10 -3 -10 6 0 15 5 18 10 8 12 4 12 -15 0z"/>
<path d="M4153 1015 c0 -8 4 -12 9 -9 5 3 6 10 3 15 -9 13 -12 11 -12 -6z"/>
<path d="M5460 1025 c0 -5 5 -17 10 -25 5 -8 10 -10 10 -5 0 6 -5 17 -10 25
-5 8 -10 11 -10 5z"/>
<path d="M5505 1019 c-3 -4 2 -6 10 -5 21 3 28 13 10 13 -9 0 -18 -4 -20 -8z"/>
<path d="M890 1009 c0 -5 5 -7 10 -4 6 3 10 8 10 11 0 2 -4 4 -10 4 -5 0 -10
-5 -10 -11z"/>
<path d="M2245 1010 c-3 -6 1 -7 9 -4 18 7 21 14 7 14 -6 0 -13 -4 -16 -10z"/>
<path d="M926 995 c4 -8 11 -15 16 -15 6 0 5 6 -2 15 -7 8 -14 15 -16 15 -2 0
-1 -7 2 -15z"/>
<path d="M4117 999 c7 -7 15 -10 18 -7 3 3 -2 9 -12 12 -14 6 -15 5 -6 -5z"/>
<path d="M900 987 c0 -2 15 -16 33 -33 l32 -29 -29 33 c-28 30 -36 37 -36 29z"/>
<path d="M5474 968 l-19 -23 23 19 c12 11 22 21 22 23 0 8 -8 2 -26 -19z"/>
<path d="M5400 960 c0 -5 5 -10 11 -10 5 0 7 5 4 10 -3 6 -8 10 -11 10 -2 0
-4 -4 -4 -10z"/>
<path d="M3970 956 c0 -2 7 -7 16 -10 8 -3 12 -2 9 4 -6 10 -25 14 -25 6z"/>
<path d="M5380 943 c0 -15 18 -35 23 -27 3 5 -1 15 -9 22 -8 7 -14 9 -14 5z"/>
<path d="M1010 910 c0 -5 5 -10 10 -10 6 0 10 5 10 10 0 6 -4 10 -10 10 -5 0
-10 -4 -10 -10z"/>
<path d="M5409 903 c-13 -16 -12 -17 4 -4 16 13 21 21 13 21 -2 0 -10 -8 -17
-17z"/>
<path d="M999 887 c29 -32 27 -31 35 -11 3 9 2 12 -5 9 -6 -4 -20 1 -32 11
-18 16 -18 14 2 -9z"/>
<path d="M2470 900 c-9 -6 -10 -10 -3 -10 6 0 15 5 18 10 8 12 4 12 -15 0z"/>
<path d="M1070 880 c8 -5 20 -10 25 -10 6 0 3 5 -5 10 -8 5 -19 10 -25 10 -5
0 -3 -5 5 -10z"/>
<path d="M5341 881 c-8 -5 -9 -11 -3 -15 5 -3 12 1 16 9 6 17 6 18 -13 6z"/>
<path d="M2748 853 c7 -3 16 -2 19 1 4 3 -2 6 -13 5 -11 0 -14 -3 -6 -6z"/>
<path d="M3638 853 c7 -3 16 -2 19 1 4 3 -2 6 -13 5 -11 0 -14 -3 -6 -6z"/>
<path d="M3708 843 c7 -3 16 -2 19 1 4 3 -2 6 -13 5 -11 0 -14 -3 -6 -6z"/>
<path d="M5254 828 l-19 -23 24 20 24 20 -7 -20 c-6 -16 -5 -18 5 -7 9 8 10
15 3 22 -7 7 -17 3 -30 -12z"/>
<path d="M1072 824 c10 -10 20 -16 22 -13 3 3 -5 11 -17 18 -21 13 -21 12 -5
-5z"/>
<path d="M2718 833 c7 -3 16 -2 19 1 4 3 -2 6 -13 5 -11 0 -14 -3 -6 -6z"/>
<path d="M3503 833 c9 -2 23 -2 30 0 6 3 -1 5 -18 5 -16 0 -22 -2 -12 -5z"/>
<path d="M5319 823 c-13 -16 -12 -17 4 -4 9 7 17 15 17 17 0 8 -8 3 -21 -13z"/>
<path d="M3338 823 c7 -3 16 -2 19 1 4 3 -2 6 -13 5 -11 0 -14 -3 -6 -6z"/>
<path d="M3178 813 c7 -3 16 -2 19 1 4 3 -2 6 -13 5 -11 0 -14 -3 -6 -6z"/>
<path d="M1109 788 c11 -15 41 -15 41 -1 0 3 -6 3 -14 0 -7 -3 -20 0 -27 6
-11 10 -11 9 0 -5z"/>
<path d="M5279 783 c-13 -16 -12 -17 4 -4 9 7 17 15 17 17 0 8 -8 3 -21 -13z"/>
<path d="M1200 776 c0 -2 8 -10 18 -17 15 -13 16 -12 3 4 -13 16 -21 21 -21
13z"/>
<path d="M1140 756 c0 -2 7 -7 16 -10 8 -3 12 -2 9 4 -6 10 -25 14 -25 6z"/>
<path d="M1240 740 c0 -5 5 -10 11 -10 5 0 7 5 4 10 -3 6 -8 10 -11 10 -2 0
-4 -4 -4 -10z"/>
<path d="M5140 733 c0 -1 10 -7 21 -14 17 -8 20 -8 14 1 -5 8 -3 11 6 8 8 -3
13 -11 11 -18 -3 -11 0 -11 13 0 8 7 13 16 9 19 -5 6 -74 10 -74 4z"/>
<path d="M1180 726 c0 -2 8 -10 18 -17 15 -13 16 -12 3 4 -13 16 -21 21 -21
13z"/>
<path d="M5078 673 c7 -3 16 -2 19 1 4 3 -2 6 -13 5 -11 0 -14 -3 -6 -6z"/>
<path d="M2733 650 c-18 -11 -33 -22 -33 -25 0 -3 9 -16 21 -29 21 -24 21 -24
53 -5 26 15 35 16 56 6 57 -28 21 -79 -100 -143 -56 -29 -70 -41 -75 -66 -4
-16 -5 -31 -3 -33 3 -3 242 -44 244 -41 1 0 4 15 7 32 6 31 5 32 -41 39 -99
14 -101 15 -46 43 98 49 137 112 109 178 -26 62 -126 85 -192 44z"/>
<path d="M3545 647 c-43 -20 -66 -50 -72 -95 -7 -50 16 -95 56 -112 30 -12 90
-10 124 4 22 10 23 -11 1 -42 -16 -24 -70 -30 -104 -12 -15 8 -20 4 -31 -22
-11 -27 -10 -32 6 -44 26 -19 103 -17 144 4 46 23 71 73 71 141 0 114 -43 180
-122 187 -24 3 -56 -2 -73 -9z m110 -91 c8 -24 6 -31 -14 -47 -30 -25 -56 -24
-82 2 -14 14 -18 27 -13 42 9 30 23 38 64 35 28 -3 37 -8 45 -32z"/>
<path d="M5080 628 c-12 -22 -12 -22 6 -6 10 10 15 20 12 24 -4 3 -12 -5 -18
-18z"/>
<path d="M3055 630 c-11 -4 -30 -18 -42 -32 -108 -116 -38 -320 106 -305 55 6
90 32 119 87 60 119 -10 261 -128 259 -19 0 -44 -4 -55 -9z m104 -86 c14 -18
21 -41 21 -71 0 -96 -61 -144 -117 -91 -28 26 -32 102 -8 148 25 47 73 54 104
14z"/>
<path d="M3390 632 c-50 -5 -110 -25 -110 -36 0 -6 3 -21 6 -33 5 -18 10 -20
35 -13 l29 9 0 -88 c0 -49 3 -109 6 -135 6 -44 8 -46 40 -46 l34 0 -1 103 c-1
56 -4 134 -8 172 -6 67 -7 70 -31 67z"/>
<path d="M5027 620 c-9 -11 -13 -20 -7 -20 5 0 14 9 20 20 6 11 9 20 8 20 -2
0 -11 -9 -21 -20z"/>
<path d="M1325 620 c-3 -6 1 -7 9 -4 18 7 21 14 7 14 -6 0 -13 -4 -16 -10z"/>
<path d="M2489 596 c-14 -37 -14 -38 -57 -33 l-44 5 30 -32 c29 -30 30 -32 15
-59 -19 -37 -12 -42 27 -22 32 16 33 16 62 -12 l31 -28 -7 42 c-6 41 -5 43 31
62 l38 19 -44 9 c-40 8 -45 12 -56 48 l-11 40 -15 -39z"/>
<path d="M3886 593 c-7 -36 -11 -43 -31 -43 -13 0 -31 -3 -40 -6 -13 -5 -10
-10 16 -26 29 -18 31 -22 25 -61 l-7 -42 30 30 c31 29 31 29 66 12 38 -18 41
-15 20 23 -12 23 -11 27 13 53 l26 27 -40 0 c-36 0 -40 3 -55 38 l-16 37 -7
-42z"/>
<path d="M4985 620 c-3 -5 -1 -10 4 -10 6 0 11 5 11 10 0 6 -2 10 -4 10 -3 0
-8 -4 -11 -10z"/>
<path d="M1434 548 c-7 -12 11 -17 26 -7 18 11 33 12 26 1 -2 -4 3 -8 13 -8
10 0 18 5 18 11 0 11 -76 15 -83 3z"/>
<path d="M4953 543 c0 -8 6 -9 19 -2 10 5 18 11 18 12 0 2 -8 3 -18 3 -10 0
-19 -6 -19 -13z"/>
<path d="M4900 510 c-8 -5 -10 -10 -5 -10 6 0 17 5 25 10 8 5 11 10 5 10 -5 0
-17 -5 -25 -10z"/>
<path d="M1580 470 c-12 -7 -10 -9 7 -7 12 0 19 5 17 9 -6 10 -6 10 -24 -2z"/>
<path d="M1630 449 c0 -5 5 -7 10 -4 6 3 10 8 10 11 0 2 -4 4 -10 4 -5 0 -10
-5 -10 -11z"/>
<path d="M1650 429 c0 -5 5 -7 10 -4 6 3 10 8 10 11 0 2 -4 4 -10 4 -5 0 -10
-5 -10 -11z"/>
<path d="M4650 420 c-8 -5 -10 -10 -5 -10 6 0 17 5 25 10 8 5 11 10 5 10 -5 0
-17 -5 -25 -10z"/>
<path d="M4590 390 c-9 -6 -10 -10 -3 -10 6 0 15 5 18 10 8 12 4 12 -15 0z"/>
<path d="M4647 379 c7 -9 9 -19 5 -24 -4 -4 4 -2 18 5 32 16 41 25 16 16 -10
-3 -26 -1 -35 6 -14 11 -14 11 -4 -3z"/>
<path d="M4590 360 c-9 -6 -10 -10 -3 -10 6 0 15 5 18 10 8 12 4 12 -15 0z"/>
<path d="M1927 319 c7 -7 15 -10 18 -7 3 3 -2 9 -12 12 -14 6 -15 5 -6 -5z"/>
<path d="M4465 300 c-18 -8 -18 -9 -2 -9 12 -1 16 -6 11 -13 -4 -7 -3 -9 1 -5
7 6 17 39 12 36 -1 0 -11 -4 -22 -9z"/>
<path d="M1906 289 c4 -7 44 0 44 7 0 2 -11 3 -24 2 -14 -1 -23 -5 -20 -9z"/>
<path d="M4319 265 c-8 -30 4 -55 25 -55 6 0 3 5 -6 10 -10 6 -15 19 -13 30 3
17 -2 30 -6 15z"/>
<path d="M4185 220 c-3 -5 -1 -10 4 -10 6 0 11 5 11 10 0 6 -2 10 -4 10 -3 0
-8 -4 -11 -10z"/>
<path d="M2180 200 c0 -5 5 -10 11 -10 5 0 7 5 4 10 -3 6 -8 10 -11 10 -2 0
-4 -4 -4 -10z"/>
<path d="M2140 190 c-12 -7 -10 -9 7 -7 12 0 19 5 17 9 -6 10 -6 10 -24 -2z"/>
<path d="M2318 178 c5 -5 16 -8 23 -6 8 3 3 7 -10 11 -17 4 -21 3 -13 -5z"/>
<path d="M2218 173 c7 -3 16 -2 19 1 4 3 -2 6 -13 5 -11 0 -14 -3 -6 -6z"/>
<path d="M3948 143 c7 -3 16 -2 19 1 4 3 -2 6 -13 5 -11 0 -14 -3 -6 -6z"/>
<path d="M2438 123 c7 -3 16 -2 19 1 4 3 -2 6 -13 5 -11 0 -14 -3 -6 -6z"/>
<path d="M3798 113 c7 -3 16 -2 19 1 4 3 -2 6 -13 5 -11 0 -14 -3 -6 -6z"/>
<path d="M2557 99 c7 -7 15 -10 18 -7 3 3 -2 9 -12 12 -14 6 -15 5 -6 -5z"/>
<path d="M2698 93 c7 -3 16 -2 19 1 4 3 -2 6 -13 5 -11 0 -14 -3 -6 -6z"/>
<path d="M3528 63 c7 -3 16 -2 19 1 4 3 -2 6 -13 5 -11 0 -14 -3 -6 -6z"/>
<path d="M2638 53 c7 -3 16 -2 19 1 4 3 -2 6 -13 5 -11 0 -14 -3 -6 -6z"/>
<path d="M2728 53 c7 -3 16 -2 19 1 4 3 -2 6 -13 5 -11 0 -14 -3 -6 -6z"/>
<path d="M3658 53 c7 -3 16 -2 19 1 4 3 -2 6 -13 5 -11 0 -14 -3 -6 -6z"/>
<path d="M3738 53 c7 -3 16 -2 19 1 4 3 -2 6 -13 5 -11 0 -14 -3 -6 -6z"/>
<path d="M3528 43 c7 -3 16 -2 19 1 4 3 -2 6 -13 5 -11 0 -14 -3 -6 -6z"/>
<path d="M3437 19 c7 -7 15 -10 18 -7 3 3 -2 9 -12 12 -14 6 -15 5 -6 -5z"/>
</g>
</svg>
