<?xml version="1.0" standalone="yes"?>
<svg width="640" height="640">
<path style="fill:#fefefe; stroke:none;" d="M0 0L0 299L1 299C1.25666 267.996 9.99147 235.74 21.0887 207C64.7818 93.842 179.084 1 304 1L277 0L215 0L0 0z"/>
<path style="fill:#daac71; stroke:none;" d="M304 0L304 1L336 1L304 0z"/>
<path style="fill:#fefefe; stroke:none;" d="M336 0L336 1C450.871 1.01306 559.312 81.5793 608.258 182C625.345 217.058 638.974 258.544 639 298L640 298L640 0L336 0z"/>
<path style="fill:#b87d3b; stroke:none;" d="M291 1.42438C234.249 8.96747 182.465 25.6016 135.039 58.6667C102.003 81.6996 72.8788 111.967 51.3194 146C-25.3681 267.056 -13.4523 425.997 81.2863 534C100.795 556.24 124.088 575.252 149 591.053C176.685 608.613 207.123 622.263 239 630.255C278.741 640.218 321.337 643.008 362 637.711C407.97 631.722 453.033 615.394 492 590.308C532.628 564.152 567.618 529.282 592.939 488C669.274 363.546 650.251 195.939 545.996 93.0146C508.478 55.9747 462.927 30.1948 413 14.2554C375.448 2.26666 330.371 -3.80865 291 1.42438z"/>
<path style="fill:#c89046; stroke:none;" d="M200 31L200 32L205 32C201.7 36.4286 198.459 37.8681 193 38L195 41L172.981 54.6165L162 58L169 58L169 59L160 66L160 67L167 66C166.64 70.7379 165.555 75.0484 170 78C173.64 68.8769 181.046 71.1351 189 70L194 80L198 79C199.41 83.1949 206.523 92.4321 209 84L212 85C212.538 74.2346 210.034 65.8315 206 56L213 53L214 58L215 58C215.812 54.0682 217.214 52.3607 221 51L220 64L221 64L226 62L225 54L230 55L231 55L232 58L243 54C239.632 49.2371 234.434 52.1937 230 54C228.464 46.7556 236.59 43.2661 243 44.4977C251.544 46.1393 258.757 54.077 256 39L264 41C269.629 36.0359 272.795 38.6818 278.726 36.358C281.096 35.4295 281.863 32.605 284.224 31.6034C291.406 28.5554 298.525 36.5995 299 43L303 43L300 40L305 28L312 28L312 24L319 22C320.08 15.2281 326.255 15.726 332 15L332 14L327 14L327 13L344 9C335.404 5.39276 321.322 8 312 8C289.459 8 264.819 10.2764 243.09 16.5386C228.81 20.6539 214.193 27.7798 200 31z"/>
<path style="fill:#d39e52; stroke:none;" d="M327 13L327 14L332 14L332 15C326.085 15.4669 319.552 14.9144 319 22L312 24L312 28L305 28L300 40L303 40L303 43L299 43C298.737 34.8964 285.229 24.4797 281 35C296.564 31.1023 298.022 45.7169 299 58L292 59C291.411 54.3672 291.328 47.2814 288.686 43.3179C287.075 40.902 283.008 40.3796 281.607 43.3179C279.431 47.8808 282.897 56.0198 283 61L276 62C275.937 58.9672 273.091 36.4437 266.194 45.6034C263.26 49.4988 267.152 59.6271 268 64C257.672 64.4816 259.623 54.7467 257 47C252.707 51.5115 250.68 46.9754 246 45C248.621 49.3581 255.73 60.2115 252.799 65.5625C251.39 68.1332 247.385 67.6194 245 68.5556C231.928 73.686 229.812 67.0164 231 55L230 55L229 57L225 54L226 62L221 64L220 64L223 57C214.422 61.5018 219.726 71.0225 222 78L215 80L212 72L212 85L209 84C204.941 90.7469 200.163 83.336 198 79L194 80C192.805 75.4722 190.61 71.5035 186 70C190.676 80.2233 198.433 94.0996 180 96L174 102C170.098 92.8993 164.098 84.9069 159.804 76.0146C157.216 70.656 160.742 67.6711 165 72L166 72L167 66C153.125 68.2379 158.25 71.9327 159 83L152 82C149.753 77.9213 144.319 78.4907 143 83C153.017 79.7007 158.66 93.5925 163.701 101C165.022 102.942 168.571 108.459 163.938 109.218C160.734 109.742 158.379 105.108 156.86 103C152.545 97.0146 148.476 88.1162 141 86L141 87L148 96C145.231 97.863 137.573 102.226 136.648 105.344C134.65 112.077 141.448 116.978 140.959 124.004C139.789 140.814 122.447 141.047 114 130L113 130L121 143L112 139L123 147C119.743 151.587 114.361 160.533 108.996 162.573C104.521 164.275 99.3726 159.57 99.7971 155C100.198 150.686 104.33 147.079 107 144C101.02 142.682 98.225 146.945 96 152L93 151C93.6886 154.197 95.0541 153.746 98 153L98 160C92.6289 159.451 83.622 150.998 81 160L88 157L89 163C73.551 170.446 96.5362 186.175 97 167L103 167L103.494 184.461L85 185L82 189C86.1226 191.453 89.1663 192.82 89 198C96.3256 195.626 96.8837 190.801 106 193C106.426 189.739 109.374 190.278 111.389 187.889C113.424 185.476 116.744 171.852 120 179L124 179C172.922 110.946 248.632 78 331 78L331 77L312 76L312 75L328 75L328 74L312 74L312 73C316.868 73 322.883 74.3215 326 70L319 70L319 69L333 66L330 61L334 62L338 33C345.831 34.453 351.707 33.0214 352 24L360 24L369 13L376 14C373.248 10.8469 367.024 11.3267 363 10.8449C350.057 9.29523 339.241 7.65259 327 13z"/>
<path style="fill:#e7b964; stroke:none;" d="M369 13L360 24L352 24L345 37C363.681 28.8591 359.94 49.0903 359 61L352 61C352.013 56.3091 355.074 46.4934 351.972 42.6042C344.984 33.8416 343.008 56.132 343 59L336 59L338 35L337 35L334 62L330 61L333 66L319 69L319 70L326 70C322.001 73.7753 317.22 73 312 73L312 74L328 74L328 75L312 75L312 76L358 81L357 79L363 80L372 74L370 69L370 68L378 68L378 67L371 66L371 65L374 65L374 64L364 57L368 54L379 59C377.387 53.8414 371.482 52.9472 369.503 47.9846C364.242 34.7908 383.038 40.2249 388 42L385 48L375 44C377.159 48.2228 380.231 50.2127 385 50L388 54L392 47L396 49C398.736 41.5584 407.76 43.3663 414 45L413 47L417 50L418 50L420 48L422 64L423 64L424.194 50.3179L433.83 47.4012L447 40L451 37C429.331 23.297 394.55 13.5867 369 13z"/>
<path style="fill:#dabfa1; stroke:none;" d="M436.667 22.3333L437.333 22.6667L436.667 22.3333z"/>
<path style="fill:#3a3633; stroke:none;" d="M312 48L329 47C328.858 31.0809 307.255 25.6401 304.355 43C302.896 51.7328 310.164 59.7415 319 58.6837C321.473 58.3876 329.213 56.3342 326.248 52.3604C323.439 48.5942 316.445 53.83 312 48z"/>
<path style="fill:#3a3728; stroke:none;" d="M279 39C273.7 35.7287 268.209 34.6375 265 41L256 39C256.919 46.2308 258.001 53.9165 259.978 60.9406C260.81 63.8974 263.771 65.752 265.972 62.5617C269.425 57.5576 262.814 50.1505 266.781 45.3619C273.149 37.6746 275.87 58.9741 276 62L283 61C282.96 56.1398 279.534 47.413 282.042 43.1674C287.499 33.9334 291.754 55.9943 292 59L299 58C298.741 51.9766 298.149 42.3204 294.86 37.1443C290.9 30.9119 281.83 33.3843 279 39z"/>
<path style="fill:#473328; stroke:none;" d="M338 33L336 59L343 59C343.024 56.0871 345.539 33.8845 351.972 43.3225C354.71 47.3397 352.003 56.2853 352 61L359 61C359.206 51.0041 363.957 25.2985 345 37L346 34L338 33z"/>
<path style="fill:#7e7067; stroke:none;" d="M277 37L277 39L279 39L279 37L277 37z"/>
<path style="fill:#f9d179; stroke:none;" d="M447 40C441.734 39.8634 438.914 43.7703 434.715 46.4506C431.752 48.3416 428.364 47.1137 425.434 48.6034C421.434 50.6369 423.047 60.2168 423 64L422 64L420 48L418 50L417 50L413 47L414 45C408.537 43.0126 398.637 41.4411 396 48C409.44 42.8332 418.928 51.0176 415 65L398 60C399.637 67.6676 405.552 63.0451 409.11 67.5841C411.239 70.3007 407.137 72.1604 404.995 72.304C401.021 72.5703 396.867 69.7905 394.394 66.8951C388.863 60.4194 396.85 50.732 392 47L388 54L383 50C387.167 60.738 381.883 64.9688 371 65L371 66L378 67L378 68L370 68L370 69L372 74C367.642 74.6928 365.004 75.9902 363 80L357 79L357 80L399 91.5402L445 110L445 109C438.88 107.136 433.836 104.977 431 99L440 99L441 93L443 90L447 88C418.938 91.7508 442.473 44.5522 456 70L457 70C458.091 67.3816 459.251 63.4626 461.637 61.7122C464.804 59.3877 467.254 63.0533 466.5 66.0154C464.042 75.6779 456.841 84.7739 453 94L468 71C468.189 65.0584 471.32 58.3721 463 57L463 56L471 56L486 58C483.21 49.7703 465.57 43.4706 458 40.0286C454.077 38.2445 449.797 35.7391 447 40z"/>
<path style="fill:#76572b; stroke:none;" d="M259 38L259 39L263 39L259 38z"/>
<path style="fill:#cfa76a; stroke:none;" d="M312 43L322 43C320.133 37.0889 313.808 37.0441 312 43z"/>
<path style="fill:#31392c; stroke:none;" d="M379 59L368 54C358.36 67.9173 393.734 67.0004 384.393 53.0934C381.972 49.4897 377.679 47.4719 375 44L385 48L388 42C382.382 39.1293 364.558 34.7673 368.951 47.9846C370.619 53.0025 376.619 54.4175 379 59z"/>
<path style="fill:#7a6341; stroke:none;" d="M283 40L283 41L287 41L283 40z"/>
<path style="fill:#e2c09b; stroke:none;" d="M476.667 41.3333L477.333 41.6667L476.667 41.3333z"/>
<path style="fill:#857055; stroke:none;" d="M267 43L267 44L271 44L267 43z"/>
<path style="fill:#725e3d; stroke:none;" d="M329 43L329 47L321 47L321 48L330 48L329 43z"/>
<path style="fill:#856f40; stroke:none;" d="M344.333 43.6667L344.667 44.3333L344.333 43.6667z"/>
<path style="fill:#383429; stroke:none;" d="M230 54C235.653 52.3884 239.524 49.9464 244 55C239.582 55.0127 234.722 54.8846 231.434 58.3943C227.33 62.7759 230.211 70.5014 236.005 71.6389C252.542 74.8859 259.33 54.9599 245.895 45.7423C239.865 41.6053 226.509 45.476 230 54z"/>
<path style="fill:#78613f; stroke:none;" d="M402 45L402 46L406 46L402 45z"/>
<path style="fill:#36322f; stroke:none;" d="M410 66C404.219 66.5946 400.126 65.9297 398 60L415 65C416.276 60.683 417.124 54.1204 414.258 50.2137C406.9 40.1859 391.444 48.0067 391.137 59C390.815 70.5653 411.921 77.4225 410 66z"/>
<path style="fill:#313332; stroke:none;" d="M215 58L214 58L213 53L206 56L215 80L222 78C220.154 70.0261 215.21 63.1754 223 57L221 51C216.749 51.9074 215.486 53.7431 215 58z"/>
<path style="fill:#e0c785; stroke:none;" d="M400 53L400 55L410 58C409.066 52.0928 405.25 50.6001 400 53z"/>
<path style="fill:#3e2c18; stroke:none;" d="M189 60L197 57C193.58 49.811 187.879 52.7103 189 60z"/>
<path style="fill:#7e6e4d; stroke:none;" d="M243 53L240 54L240 55L243 53z"/>
<path style="fill:#856942; stroke:none;" d="M291.333 54.6667L291.667 55.3333L291.333 54.6667z"/>
<path style="fill:#85653c; stroke:none;" d="M359 54L359 57L360 57L359 54z"/>
<path style="fill:#755721; stroke:none;" d="M416 54L416 60L417 60L416 54z"/>
<path style="fill:#efc36c; stroke:none;" d="M463 56L463 57C470.461 59.2397 467.833 65.0223 468 71C461.461 75.1278 457.405 86.8322 455 94L443 90L441 93L440 99L431 99C433.153 105.513 438.631 107.629 445 109L445 110L438 109L438 110C452.602 115.675 463.091 127.127 476.004 135.399C481.711 139.055 485.352 135.872 489 143L490 143L490 139L495 138L496 144C500.072 141.33 498.145 137.077 497 133L499 132L500 132L504 135C499.036 126.171 511.307 117.397 518 112C514.738 104.993 507.79 100.833 518 97L526 103L525 99L527 102L528 102C532.867 97.0255 537.072 99.6461 542 103C537.898 88.4694 513.41 74.6104 501.83 65.8812C498.743 63.5536 489.316 55.2423 486 58L485 58L484 58L484 56C479.446 57.0707 474.737 59.4852 471 56L463 56z"/>
<path style="fill:#9d7c46; stroke:none;" d="M364.333 57.6667L364.667 58.3333L364.333 57.6667z"/>
<path style="fill:#7b624e; stroke:none;" d="M240 58L240 59L245 59L240 58z"/>
<path style="fill:#807464; stroke:none;" d="M408.667 58.3333L409.333 58.6667L408.667 58.3333z"/>
<path style="fill:#c69d67; stroke:none;" d="M245 59C229.092 59.188 243.985 72.1449 245 59z"/>
<path style="fill:#423022; stroke:none;" d="M192 62L203 86C214.113 80.9445 201.855 67.9788 199 60L192 62z"/>
<path style="fill:#4a3518; stroke:none;" d="M458 68L462 62C467.665 67.781 455.187 83.7141 452 90L447 89L453 94C457.605 86.1107 465.971 74.127 467.215 65.0439C468.424 56.2106 459.34 63.3748 458 68z"/>
<path style="fill:#735732; stroke:none;" d="M267 61L266 64L267 61z"/>
<path style="fill:#383138; stroke:none;" d="M448 87L449 90L452 90C455.664 84.9816 468.626 66.3166 462 62L456 70C447.379 45.2514 418.59 83.8696 441.002 87.7685C443.478 88.1992 445.66 87.6902 448 87z"/>
<path style="fill:#795b29; stroke:none;" d="M374 64L374 65L380 65L374 64z"/>
<path style="fill:#ac9b70; stroke:none;" d="M403 66L403 67L407 67L403 66z"/>
<path style="fill:#3d3532; stroke:none;" d="M174 102L179 95C181.45 95.5258 183.565 95.9211 185.997 94.9761C207.949 86.4462 175.546 55.3522 170 78C167.559 75.5927 166.238 71.636 163.471 69.662C158.727 66.277 157.948 72.9702 159.293 76C163.247 84.9044 168.947 93.6696 174 102z"/>
<path style="fill:#f5d179; stroke:none;" d="M445.043 69.8364C437.61 72.1867 439.752 84.6426 447.896 82.5471C455.497 80.5911 453.288 67.2292 445.043 69.8364z"/>
<path style="fill:#957e52; stroke:none;" d="M402 72L402 73L406 73L402 72z"/>
<path style="fill:#c49249; stroke:none;" d="M176 77C174.486 81.9055 174.283 84.5033 177 89C185.741 86.6908 184.667 78.2587 176 77z"/>
<path style="fill:#bc9669; stroke:none;" d="M174 78C173.535 79.9767 172.976 81.9432 173.269 84.0008C175.426 99.1905 195.188 82.5099 180 78L180 79C185.141 83.3423 182.441 86.8392 177 89L176 78L174 78z"/>
<path style="fill:#bb7c37; stroke:none;" d="M304 78.4244C250.575 85.4391 199.954 100.904 159.039 138.181C115.949 177.438 86.419 231.922 79.2863 290C68.0871 381.188 111.64 476.073 189.87 524.927C213.056 539.407 237.419 550.04 264 556.205C292.731 562.869 321.736 564.66 351 560.718C460.96 545.905 554.197 453.638 561.911 341C570.071 221.843 490.388 107.395 371 83.5509C349.654 79.2877 325.782 75.5643 304 78.4244z"/>
<path style="fill:#383934; stroke:none;" d="M143 83C144.42 87.2112 147.125 90.4136 149.706 94L155.421 102C156.803 103.931 168.094 116.078 166.954 105.956C165.988 97.3691 151.512 78.9949 143 83z"/>
<path style="fill:#bda46c; stroke:none;" d="M473 80L473 81L478 81L473 80z"/>
<path style="fill:#303634; stroke:none;" d="M479 108L469 93L485 103C491.39 91.5923 483.418 74.1594 469.015 83.0093C454.957 91.6473 465.985 107.721 479 108z"/>
<path style="fill:#ad8154; stroke:none;" d="M272 86L272 88C282.413 87.553 292.609 84.801 303 84.0895C324.103 82.6443 345.277 84.7284 366 88.6111C378.222 90.9011 390.405 94.3199 402 98.811C409.741 101.809 417.607 106.569 426 107L426 106C417.916 100.805 404.705 95.498 395 95L395 92L338 82.0895L272 86z"/>
<path style="fill:#dbbd9b; stroke:none;" d="M299 84L299 85L304 85L299 84z"/>
<path style="fill:#fff8e7; stroke:none;" d="M173 136C178.79 134.668 182.168 130.562 187.09 127.601C199.79 119.96 211.844 112.246 225.282 105.915C266.729 86.3888 318.25 80.4744 363 90.5486C376.84 93.6644 389.734 96.3501 403.001 101.467C406.884 102.965 414.323 104.433 415 109L421 107C407.835 97.0367 385.965 92.3791 370 89.1998C321.233 79.4883 273.115 84.1538 227 102.6C209.385 109.647 184.787 120.634 173 136z"/>
<path style="fill:#fefefe; stroke:none;" d="M139 473C166.185 465.286 194.794 456.495 218.91 441.4C234.781 431.466 248.052 413 267 413C259.983 423.608 250.001 427.652 241.584 435.595C216.864 458.922 181.557 473.237 148 481C154.179 494.25 163.544 491.316 175 487.656C190.472 482.712 205.46 475.442 221 471L223 482L188 494.656L168 502C212.929 535.305 260.428 555.599 317 556.985C351.219 557.824 384.253 549.935 414.065 534.684C425.81 528.675 437.86 524.31 449.004 517.002C455.591 512.681 460.568 506.313 467.09 502.017C471.388 499.185 475.976 498.391 480 494.826C536.877 444.429 561.918 367.371 554.83 293C552.241 265.831 544.817 233.306 529.482 210.263C527.562 207.378 524.354 205.884 522.464 202.906C519.439 198.137 518.796 192.812 516.2 188C511.028 178.415 502.942 169.33 495.661 161.289C488.126 152.968 479.741 145.022 471 137.999C467.923 135.527 464.172 131.118 460 130.812C454.571 130.415 447.827 134.915 443 137C425.296 144.649 410.41 156.411 396 169L395.118 157.09L408 145.735L449 123L449 122C444.855 119.257 439.082 114.12 434 113.748C423.087 112.948 405.44 126.088 397 132.155C393.601 134.598 389.238 139.58 385 140.275C381.833 140.795 378.017 137.892 375 137C383.704 128.67 393.539 121.67 404 115.719C406.768 114.144 414.265 111.525 414.824 107.934C415.313 104.792 408.108 103.222 406 102.309C396.115 98.0271 386.118 94.8832 375.576 92.8426C333.325 84.6646 290.626 82.5261 249.09 96.3858C224.123 104.717 201.102 117.126 179.7 132.561C174.243 136.497 168.304 138.253 163.075 142.804C94.7465 202.263 68.4094 299.562 92.909 386C102.13 418.533 118.726 446.26 139 473z"/>
<path style="fill:#dab895; stroke:none;" d="M277 87L277 88L280 88L277 87z"/>
<path style="fill:#86765f; stroke:none;" d="M447.333 87.6667L447.667 88.3333L447.333 87.6667z"/>
<path style="fill:#dfc683; stroke:none;" d="M473 88L482 95C481.802 88.947 479.082 86.3481 473 88z"/>
<path style="fill:#92804e; stroke:none;" d="M441 88L441 89L445 89L441 88z"/>
<path style="fill:#998256; stroke:none;" d="M488 90L488 96L489 96L488 90z"/>
<path style="fill:#927740; stroke:none;" d="M462 92L462 97L463 97L462 92z"/>
<path style="fill:#8d7d63; stroke:none;" d="M469.667 93.3333L470.333 93.6667L469.667 93.3333z"/>
<path style="fill:#7a5835; stroke:none;" d="M179 95L179 99L180 99L181 95L179 95z"/>
<path style="fill:#e2af60; stroke:none;" d="M511 103C518.646 98.7666 522.779 105.708 527.998 111C529.644 112.669 533.865 115.889 532.793 118.704C531.477 122.158 524.899 116.37 522 117.752C515.617 120.794 507.524 138.737 500 132L499 132L497 133C497.883 137.298 499.263 140.599 496 144L495 138L490 139L490 143L489 143C487.275 138.114 485.303 136.017 480 137L492.685 150.843L520.104 184L535 205L534 192C538.638 190.807 540.94 191.188 544 195L545 195C546.117 189.765 544.586 185.905 539 185L541 182C537.331 176.986 532.753 170.616 534.667 164C537.63 153.764 550.5 150.124 557.606 158.185C562.365 163.585 559.471 170.56 561 177L558 180C564.69 177.621 571.333 175.492 575 169L576 169L581 170L582 171L583 181L584 181L587 176L588 179L592 179L592 172L593 172L598 181C596.601 170.662 590.082 161.587 584.504 153C573.06 135.382 559.159 113.515 542 101L542 103C537.983 99.3688 531.663 96.345 528 102L527 102L525 99L526 103L518 97C514.003 98.0944 511.724 98.6579 511 103z"/>
<path style="fill:#383138; stroke:none;" d="M511 103L511 104L518 112C511.73 115.347 495.144 129.528 506 135C510.166 129.671 515.914 121.722 522 118.635C524.478 117.378 530.103 121.311 531.263 118.601C532.172 116.479 529.188 113.464 528.191 111.816C524.269 105.326 518.368 97.0077 511 103z"/>
<path style="fill:#907a53; stroke:none;" d="M471.667 107.333L472.333 107.667L471.667 107.333z"/>
<path style="fill:#929292; stroke:none;" d="M336.667 108.333L337.333 108.667L336.667 108.333z"/>
<path style="fill:#363435; stroke:none;" d="M330 138C318.007 140.319 303.858 150.795 294 157.86C290.031 160.704 285.59 165.78 280.91 167.258C269.331 170.913 252.229 160.566 240 160.259C227.18 159.938 213.705 165.088 204 153L203 153C197.378 176.613 219.784 163.063 231.545 172.698C253.02 190.292 288.661 188.935 310.722 206.966C316.915 212.027 321.959 225.598 325 233C307.085 233.049 290.944 227.119 274 236L274 238C281.766 241.898 290.609 241.129 299 242.615C311.335 244.799 323.371 249.846 336 249.996C341.878 250.066 352.448 252.105 355.821 245.941C361.097 236.3 349.148 214.676 346 205L366 221L367 220C363.664 212.847 355.153 204.336 348 201C350.844 196.683 354.99 188.436 360.086 186.623C366.201 184.448 368.255 193.478 374 192.608C396.228 189.242 396.262 164.447 385.485 150C379.68 142.217 364.435 140.398 362 132L353 131C352.324 125.652 353.176 117.73 349.991 113.214C345.209 106.433 330.515 106.554 326.461 114.105C323.907 118.862 327.592 133.282 330 138z"/>
<path style="fill:#c2c2c2; stroke:none;" d="M342.667 108.333L343.333 108.667L342.667 108.333z"/>
<path style="fill:#ee3437; stroke:none;" d="M432 114L432 112C416.904 104.127 402.975 113.953 391.545 124.407C388.342 127.336 374.9 133.76 380.453 139.262C384.999 143.766 390.331 137.902 394 135.13C405.554 126.402 418.502 119.209 432 114z"/>
<path style="fill:#383733; stroke:none;" d="M124.001 111.653C107.841 116.352 112.855 143.131 129.999 138.358C147.36 133.525 141.303 106.622 124.001 111.653z"/>
<path style="fill:#3f2e10; stroke:none;" d="M528 111L530 122C536.519 118.669 532.562 114.255 528 111z"/>
<path style="fill:#aaa8a9; stroke:none;" d="M350 113L351 114L350 113z"/>
<path style="fill:#e6868a; stroke:none;" d="M422.667 117.333L423.333 117.667L422.667 117.333z"/>
<path style="fill:#cb954b; stroke:none;" d="M123.533 118.862C116.257 122.62 122.467 134.385 129.892 131.137C138.27 127.472 131.153 114.927 123.533 118.862z"/>
<path style="fill:#a1a1a1; stroke:none;" d="M325 120L326 121L325 120z"/>
<path style="fill:#a6a6a6; stroke:none;" d="M352 121L352 128L353 128L352 121z"/>
<path style="fill:#846342; stroke:none;" d="M113 122L113 129L114 129L113 122z"/>
<path style="fill:#ca3741; stroke:none;" d="M375 137L379 138L393 123C386.096 125.617 379.358 131.079 375 137z"/>
<path style="fill:#41519c; stroke:none;" d="M396 169C416.608 156.109 433.854 139.062 457 130C452.546 118.116 439.706 126.394 432 130.247C422.052 135.221 412.773 141.171 404 148.014C400.928 150.41 395.986 153.225 394.643 157.09C393.402 160.658 395.513 165.386 396 169z"/>
<path style="fill:#806f44; stroke:none;" d="M502 126L502 128L504 126L502 126z"/>
<path style="fill:#a37c39; stroke:none;" d="M530.667 127.333L531.333 127.667L530.667 127.333z"/>
<path style="fill:#332f2e; stroke:none;" d="M93 128C89.5797 135.441 82.7677 137.046 86 146C91.2715 143.057 100.901 132.361 93 128z"/>
<path style="fill:#515f82; stroke:none;" d="M457 128L451 132L451 133L460 130L457 128z"/>
<path style="fill:#3d3027; stroke:none;" d="M528 133C532.188 135.985 534.867 138.672 534 144C532.184 141.495 530.416 138.683 527.826 136.894C515.521 128.387 508.667 148.904 524 152C522.753 165.13 540.244 149.857 541.681 144C543.54 136.426 532.008 122.138 528 133z"/>
<path style="fill:#755955; stroke:none;" d="M91 129L91 133L92 133L91 129z"/>
<path style="fill:#7f6630; stroke:none;" d="M500.333 129.667L500.667 130.333L500.333 129.667z"/>
<path style="fill:#dcbc7f; stroke:none;" d="M513 146L514 146C514.775 129.33 526.544 136.724 534 144C536.378 134.962 524.316 129.233 517.109 134.01C512.86 136.826 513.013 141.448 513 146z"/>
<path style="fill:#866144; stroke:none;" d="M520 134L520 135L524 135L520 134z"/>
<path style="fill:#3f3029; stroke:none;" d="M91 150L96 152C98.8397 147.535 101.259 143.519 107 144C104.826 145.805 102.846 147.577 101.343 150.016C93.3111 163.05 115.071 168.971 116 152C119.86 151.837 121.332 150.437 123 147C110.66 139.383 96.1928 128.389 91 150z"/>
<path style="fill:#c1bfc0; stroke:none;" d="M329.333 136.667L329.667 137.333L329.333 136.667z"/>
<path style="fill:#a17e56; stroke:none;" d="M542 139L542 143L543 143L542 139z"/>
<path style="fill:#9f9d9e; stroke:none;" d="M323 140L324 141L323 140z"/>
<path style="fill:#dfbd76; stroke:none;" d="M530 148C525.906 133.588 515.794 150.923 530 148z"/>
<path style="fill:#a5a3a4; stroke:none;" d="M320 142L321 143L320 142z"/>
<path style="fill:#8f7044; stroke:none;" d="M514 143L514 146L515 146L514 143z"/>
<path style="fill:#949293; stroke:none;" d="M381 145L382 146L381 145z"/>
<path style="fill:#be9883; stroke:none;" d="M107 152L112 148C108.708 147.931 107.946 148.859 107 152z"/>
<path style="fill:#cb9e5b; stroke:none;" d="M106 150C104.314 159.086 112.177 156.36 113 149L106 150z"/>
<path style="fill:#79613b; stroke:none;" d="M116 152L116 155L117 155L118 152L116 152z"/>
<path style="fill:#898989; stroke:none;" d="M300 153L301 154L300 153z"/>
<path style="fill:#3a382b; stroke:none;" d="M547 180L541 164C545.438 166.493 548.003 175.408 553.079 176.079C557.308 176.637 560.104 170.307 560.644 167C561.768 160.125 555.906 153.419 549 153.198C531.718 152.646 530.019 178.72 547 180z"/>
<path style="fill:#a4a4a4; stroke:none;" d="M297 155L298 156L297 155z"/>
<path style="fill:#39342e; stroke:none;" d="M99 182L101 187C107.075 183.55 102.864 173.606 103 167L97 167C96.0996 183.435 75.2045 173.045 89 163L88 157C76.3392 159.263 71.7128 174.56 82.1852 181.852C87.4316 185.505 93.4248 183.475 99 182z"/>
<path style="fill:#888888; stroke:none;" d="M293 158L294 159L293 158z"/>
<path style="fill:#909090; stroke:none;" d="M201 159L201 164L202 164L201 159z"/>
<path style="fill:#d6d9c6; stroke:none;" d="M145 160L144 163L145 160z"/>
<path style="fill:#817f80; stroke:none;" d="M242 160L242 161L245 161L242 160z"/>
<path style="fill:#dab766; stroke:none;" d="M546 160L553 169C555.803 162.759 552.112 160.198 546 160z"/>
<path style="fill:#b2b2b2; stroke:none;" d="M220 161L220 162L227 162L220 161z"/>
<path style="fill:#6b696a; stroke:none;" d="M227 161L227 162L232 162L227 161z"/>
<path style="fill:#725835; stroke:none;" d="M534 163L534 170L535 170L534 163z"/>
<path style="fill:#c8c6c7; stroke:none;" d="M262.667 164.333L263.333 164.667L262.667 164.333z"/>
<path style="fill:#969495; stroke:none;" d="M285 164L286 165L285 164z"/>
<path style="fill:#d7a358; stroke:none;" d="M541 164L547 180C541.862 179.207 538.927 176.14 536 172L535 172L541 182L539 185C544.12 186.491 545.633 189.892 545 195L544 195C541.59 190.412 538.589 190.166 534 192C534.803 196.72 536.253 200.986 533 205L533 206C544.287 225.138 555.047 249.603 557 272L559 272L559 256L571 252L572 247L572 246L570 242L574 242L574 241C568.897 240.612 566.665 238.211 564 234L571 232L569 230L573 225L564 227C562.22 214.596 573.476 208.663 583 202C584.864 210.025 579.33 213.058 573 217L573 218C580.806 217.935 588.172 214.59 591 224L579 232L579 233C587.111 232.652 595.103 229.564 597 240L604 240L604 236L608 236L605 231C622.886 219.377 604.547 191.34 599 178L598 178L598 181L593 172L592 172L592 179L587 176L584 181L583 181L582 171L581 170L576 169L575 169L558 180L561 177L560 171L559 171C552.25 179.469 547.535 171.106 544 164L541 164z"/>
<path style="fill:#979596; stroke:none;" d="M276.667 167.333L277.333 167.667L276.667 167.333z"/>
<path style="fill:#a0a0a0; stroke:none;" d="M214.667 169.333L215.333 169.667L214.667 169.333z"/>
<path style="fill:#6b6b6b; stroke:none;" d="M216.667 169.333L217.333 169.667L216.667 169.333z"/>
<path style="fill:#a4a3a1; stroke:none;" d="M393 172L393 176L394 176L393 172z"/>
<path style="fill:#393033; stroke:none;" d="M550 195L560 192C557.936 199.017 554.297 202.526 557 210L559 210C565.891 197.575 567.447 195.893 581 199C578.615 191.557 573.139 189.652 566 188L566 187C573.463 184.809 582.094 181.743 579 173C570.421 175.471 544.988 184.331 550 195z"/>
<path style="fill:#dcab5f; stroke:none;" d="M106 193C90.677 187.948 90.2229 201.911 81.6597 209.566C75.7664 214.834 70.7498 208.464 69 203L68 203C67.2239 208.264 69.2153 211.692 74 214L74 215L56 211L78 219C74.4122 230.929 60.2539 219.956 52 218L54 210C47.8165 212.12 49.5128 217.42 52 222C43.0075 224.661 42.3415 237.046 42 245L41 245L36 236L32 241L29 239L24 248L23 248L22 246L21 246L21 248L19 248L20 242C15.6287 245.28 15.2649 251.99 13.9969 257C9.88691 273.24 11 287.77 11 304C15.5983 300.751 14 293.089 14 288L15 288L17 296C26.1057 294.695 29.7411 287.441 31 279C36.1452 281.295 39.5494 284.489 41 290L43 284L46 283C36.6163 274.499 32.5087 261.267 48 256C48.7611 242.916 40.1016 235.623 52 225L55 231C42.612 239.051 63.1612 250.636 64.6821 237.989C64.9205 236.006 64.3535 233.934 64 232L70 230C75.5793 244.295 67.0381 251.891 53 253L53 254L65 260L65 272C70.8703 271.934 77.6995 269.882 80 264L82 266L85 264C87.8688 231.1 111.948 207.151 123 178L120 179C118.442 171.731 106 191.142 106 193z"/>
<path style="fill:#6d6d6d; stroke:none;" d="M239 178L239 179L242 179L239 178z"/>
<path style="fill:#bca070; stroke:none;" d="M80 181C83.8823 187.645 93.5683 183.898 100 186L99 182C91.2654 183.31 87.5245 183.671 80 181z"/>
<path style="fill:#797979; stroke:none;" d="M250.667 181.333L251.333 181.667L250.667 181.333z"/>
<path style="fill:#d29e52; stroke:none;" d="M61 192L60 192L60 188L58 188L57 196L56 196L56 192L51 192C49.4926 197.73 45.3839 201.713 40 204L41 210L33 208L32 203L25.1944 215L16 248L17 248L20 242L19 248L23 248L24 248L29 239L32 241L36 236L41 245L42 245C42.6657 236.564 43.5534 226.152 52 222C50.1596 217.495 47.7912 215.764 43 215L45 207L74 215L74 214C65.0935 207.589 69.6337 200.992 74 193C68.2833 192.451 66.5244 196.917 66 202L60 202C61.7305 189.212 67.6194 184.447 80 187C72.7081 180.543 63.5125 181.52 61 192z"/>
<path style="fill:#383320; stroke:none;" d="M62 201L74 193C72.5721 194.925 71.1988 196.738 70.3403 199.005C67.9728 205.256 71.9916 214.445 79.9059 211.254C84.2625 209.497 84.8251 204.962 86.4653 201.17C87.3935 199.024 89.7629 196.726 89.169 194.198C87.7713 188.249 71.9288 183.806 67.1049 186.458C61.6924 189.433 62.0035 195.659 62 201z"/>
<path style="fill:#9b9b9b; stroke:none;" d="M386 185L387 186L386 185z"/>
<path style="fill:#8d6d47; stroke:none;" d="M76.6667 186.333L77.3333 186.667L76.6667 186.333z"/>
<path style="fill:#816535; stroke:none;" d="M547.333 188.667L547.667 189.333L547.333 188.667z"/>
<path style="fill:#9e9c9d; stroke:none;" d="M354 191L355 192L354 191z"/>
<path style="fill:#414f9a; stroke:none;" d="M364 191C359.016 199.143 356.012 204.593 365 211L373 197L364 191z"/>
<path style="fill:#948f93; stroke:none;" d="M376 191L377 192L376 191z"/>
<path style="fill:#fff6de; stroke:none;" d="M518 192C518.43 198.417 521.873 205.491 528 208L518 192z"/>
<path style="fill:#4d2e0f; stroke:none;" d="M61 194L60 202L66 200L62 201L61 194z"/>
<path style="fill:#bba671; stroke:none;" d="M76 199L79 197L80 202L76 200C74.6147 204.227 79.513 206.107 81.2384 201.852C83.1548 197.126 78.5956 194.439 76 199z"/>
<path style="fill:#a4a4a4; stroke:none;" d="M286 195L287 196L286 195z"/>
<path style="fill:#db9f57; stroke:none;" d="M78 197L75 199L80 202L78 197z"/>
<path style="fill:#8890a3; stroke:none;" d="M357.333 202.667L357.667 203.333L357.333 202.667z"/>
<path style="fill:#3e2e2e; stroke:none;" d="M581 202C577.988 205.393 556.2 218.705 564.515 223.883C567.583 225.793 575.342 224 579 224C577.047 225.798 575.038 227.483 573.015 229.201C556.603 243.131 590.9 238.481 597 238C594.341 229.338 586.158 232.435 579 233L579 232L591 224C589.181 214.079 580.588 217.843 573 218L573 217C580.041 214.023 585.814 209.976 583 202L581 202z"/>
<path style="fill:#a0a098; stroke:none;" d="M352 203L353 204L352 203z"/>
<path style="fill:#8f8d8e; stroke:none;" d="M346.333 205.667L346.667 206.333L346.333 205.667z"/>
<path style="fill:#d6b999; stroke:none;" d="M619.333 206.667L619.667 207.333L619.333 206.667z"/>
<path style="fill:#493325; stroke:none;" d="M45 207L43 215L49 216L51 209L45 207z"/>
<path style="fill:#2d332f; stroke:none;" d="M53 211L52 218C59.7103 220.608 75.6832 231.64 78 219L53 211z"/>
<path style="fill:#cc9447; stroke:none;" d="M613 212L605 231L608 232L608 236L604 236L604 240C600.502 239.898 597.319 238.361 593.911 238.299C584.81 238.132 571.529 244.741 568 233L564 234C566.116 238.938 568.641 240.825 574 241L574 242L570 242L572 246L572 247L571 252L559 256L559.089 282L564 336L565 336L565 328L566 328C566.029 336.145 573.437 340.615 579.167 332.525C583.036 327.062 576.817 319.696 584.059 315.681C597.98 307.961 611.8 316.4 605 332L617 332L617 338L618 338L617 329L609 330L611 322L612 322L612 326L616 326C616.942 320.224 621.346 320.111 624 325L630 325L632 331L633 331C633 304.173 629.515 279.301 625.081 253C623.027 240.817 620.263 222.18 613 212z"/>
<path style="fill:#545488; stroke:none;" d="M353 215L357 228L358 228C360.186 221.802 358.234 218.731 353 215z"/>
<path style="fill:#999798; stroke:none;" d="M321 224L322 225L321 224z"/>
<path style="fill:#bea96a; stroke:none;" d="M564 227L573 225L569 230L569 231L579 224C574.104 224 567.259 222.719 564 227z"/>
<path style="fill:#3d3332; stroke:none;" d="M51 225C39.8542 235.677 47.0445 258.283 63.9846 249.543C70.6933 246.082 75.6428 229.84 64 232C64.2608 234.223 64.9056 236.767 64.1682 238.958C60.8601 248.785 45.551 240.027 55 231L51 225z"/>
<path style="fill:#c4c2c3; stroke:none;" d="M297.667 228.333L298.333 228.667L297.667 228.333z"/>
<path style="fill:#8a6135; stroke:none;" d="M67 230L67 231L70 232L67 230z"/>
<path style="fill:#a1a29d; stroke:none;" d="M354 230L355 231L354 230z"/>
<path style="fill:#dfc19d; stroke:none;" d="M627.333 230.667L627.667 231.333L627.333 230.667z"/>
<path style="fill:#cfb079; stroke:none;" d="M71 233C70.8705 248.435 61.2708 252.415 48 248L48 255C55.1633 255.63 60.6228 259.012 63 266L64 266C63.7691 259.007 59.444 255.796 53 254L53 253C62.0282 252.612 80.0826 245.051 71 233z"/>
<path style="fill:#999999; stroke:none;" d="M306.667 233.333L307.333 233.667L306.667 233.333z"/>
<path style="fill:#afafaf; stroke:none;" d="M314 233L314 234L317 234L314 233z"/>
<path style="fill:#d8bfa1; stroke:none;" d="M10.3333 238.667L10.6667 239.333L10.3333 238.667z"/>
<path style="fill:#727272; stroke:none;" d="M297.667 242.333L298.333 242.667L297.667 242.333z"/>
<path style="fill:#d8bb99; stroke:none;" d="M8.33333 246.667L8.66667 247.333L8.33333 246.667z"/>
<path style="fill:#ab7b4a; stroke:none;" d="M93 246C78.8811 285.53 81.7348 326.971 85 368L88 368L83.0394 317L95 246L93 246z"/>
<path style="fill:#3c3228; stroke:none;" d="M584 247.654C567.846 252.649 575.341 279.347 592 274.195C608.911 268.965 600.581 242.526 584 247.654z"/>
<path style="fill:#697372; stroke:none;" d="M328.667 249.333L329.333 249.667L328.667 249.333z"/>
<path style="fill:#545358; stroke:none;" d="M335 250L335 251L350 251L335 250z"/>
<path style="fill:#c63f46; stroke:none;" d="M317 251L314 268L325 268L325 267L317 266C317.001 254.249 324.989 250.034 325 264C328.744 255.661 325.625 251.705 317 251z"/>
<path style="fill:#e8383b; stroke:none;" d="M317 266L325 267C325 263.733 326.194 257.42 323.972 254.747C317.893 247.431 317 263.47 317 266z"/>
<path style="fill:#7679a2; stroke:none;" d="M340 254L340 255L345 255L340 254z"/>
<path style="fill:#4251a6; stroke:none;" d="M340 255L338 268L349 268L351 254L340 255z"/>
<path style="fill:#ca9851; stroke:none;" d="M586.044 254.696C577.569 257.013 581.659 270.115 589.982 267.218C598.226 264.348 594.444 252.4 586.044 254.696z"/>
<path style="fill:#37332a; stroke:none;" d="M48 255.548C31.0923 259.215 35.4567 286.546 53 282.605C69.7488 278.843 64.9079 251.88 48 255.548z"/>
<path style="fill:#e8908e; stroke:none;" d="M315.333 258.667L315.667 259.333L315.333 258.667z"/>
<path style="fill:#866738; stroke:none;" d="M574 258L574 262L575 262L574 258z"/>
<path style="fill:#eac06a; stroke:none;" d="M64 260C64 268.21 63.9736 281.766 53.9992 284.471C50.4454 285.435 46.6356 283.75 43 284L41 290C40.0637 284.154 36.726 280.561 31 279C28.7584 287.427 26.0879 293.712 17 296L15 288L14 288C14 293.59 15.0541 299.673 11 304L11 292L9 292L8 344L9 344L9 336L10 336L13 355L14 355L14 336C20.2355 335.927 28.2162 333.334 30.4861 326.714C32.4587 320.961 29.6689 316.441 35 312L36 310C32.8833 301.955 33.7123 297.021 36 289C41.2617 292.029 39.2649 295.748 39 301L49.0432 290.782L63 291L62 297L66 298L69 288L74 288L74 294L75 294L77 291L78 291L77 287C82.7064 282.742 83.1427 270.639 84 264L80 264C76.9289 269.147 70.8686 271.825 65 272L64 260z"/>
<path style="fill:#756333; stroke:none;" d="M48 262L48 263L52 263L48 262z"/>
<path style="fill:#d2b37d; stroke:none;" d="M46 273C44.7647 255.769 63.7206 274.209 46 274C53.0325 278.776 61.6904 269.078 54.5664 264.179C48.3985 259.937 39.1502 268.098 46 273z"/>
<path style="fill:#806341; stroke:none;" d="M37.3333 264.667L37.6667 265.333L37.3333 264.667z"/>
<path style="fill:#ebb265; stroke:none;" d="M44 273C45.3741 273.615 46.519 274.041 48.0579 274.197C60.1729 275.421 52.4558 259.641 46.7554 265.604C44.9371 267.506 45.3106 270.783 44 273z"/>
<path style="fill:#fc949f; stroke:none;" d="M325.333 264.667L325.667 265.333L325.333 264.667z"/>
<path style="fill:#8c7d54; stroke:none;" d="M43.3333 266.667L43.6667 267.333L43.3333 266.667z"/>
<path style="fill:#cfb195; stroke:none;" d="M89.3333 266.667L89.6667 267.333L89.3333 266.667z"/>
<path style="fill:#8a795b; stroke:none;" d="M57 268L57 271L58 271L57 268z"/>
<path style="fill:#ffbbbd; stroke:none;" d="M314 268L314 269L325 269L314 268z"/>
<path style="fill:#d0d7f4; stroke:none;" d="M338 268L338 269L349 269L338 268z"/>
<path style="fill:#939393; stroke:none;" d="M155 271L155 297L156 297L155 271z"/>
<path style="fill:#363435; stroke:none;" d="M156 271L156 297L163 297L144.67 358L136.157 382.682L123 385L123 410L186 410L186 385L171 385C172.197 381.32 173.057 374.31 176.43 372.028C182.462 367.945 198.813 370.997 206 371C209.029 371.001 213.032 370.423 215.49 372.603C218.585 375.348 219.206 381.162 220 385L202 385L202 410L281 410L281 385L267 385C263.211 356.888 250.128 326.991 241.33 300C239.168 293.366 237.136 276.218 231.437 272.028C227.202 268.914 216.087 271 211 271L156 271M289 271L289 297L302 297L302 384L289 384L289 410L355 410L355 384L343 384L343 297L355 297L355 271L289 271z"/>
<path style="fill:#888687; stroke:none;" d="M355 271L355 297L356 297L355 271z"/>
<path style="fill:#a3a3a3; stroke:none;" d="M363 271L363 323L364 323L364 288L363 271z"/>
<path style="fill:#363435; stroke:none;" d="M364 271L364 323L393 323L393 297L410 297L410 384L394 384L394 410L468 410L468 384L451 384L451 297L468 297L468 323L497 323L497 271L364 271z"/>
<path style="fill:#c2c2c2; stroke:none;" d="M497 271L497 323L498 323L498 288L497 271z"/>
<path style="fill:#d6b395; stroke:none;" d="M552 275L552 278L553 278L552 275z"/>
<path style="fill:#dcbe88; stroke:none;" d="M46 283L46 284C52.966 285.658 58.3953 284.626 62 278L46 283z"/>
<path style="fill:#88724d; stroke:none;" d="M587 281L587 282L592 282L587 281z"/>
<path style="fill:#3c2f39; stroke:none;" d="M580 282L580 289C584.12 289 598.014 286.273 598.94 292.115C600.054 299.148 585.078 298.243 581 299L581 306C587.309 305.729 597.398 306.284 602.867 302.86C607.872 299.727 607.542 292.169 603 289L603 288L605 281L580 282z"/>
<path style="fill:#7e602a; stroke:none;" d="M605 281L605 288L606 288L605 281z"/>
<path style="fill:#f7ce76; stroke:none;" d="M79 283L77 287L78 291L77 291L76 289L75 294L74 294L74 288L69 288L66 298L62 297L63 291L57 290C60.2824 298.057 59.2343 302.114 56 310L51 308L54 296C45.7642 298.66 44.2532 314.018 34 303L33 303L36 310L35 312C29.2018 315.197 32.2523 320.519 30.4861 325.83C28.3359 332.297 20.2243 335.803 14 336L14 355L13 355L10 336L9 336C9 369.251 17.7935 400.633 28 432L29 432L30 421L31 421L31 424L32 424L32 413C37.5566 412.999 42.2195 413.513 45 408L32 408L32 405C48.7119 405 56.4461 400.597 70.1667 392.5C72.6875 391.012 79.7189 389.892 80 392L81 392L82 390L84 392L86 390C85.9976 368.296 78.0014 347.028 78 325C77.9993 313.506 83.208 293.317 79 283z"/>
<path style="fill:#76552a; stroke:none;" d="M592 288L592 289L596 289L592 288z"/>
<path style="fill:#3c332e; stroke:none;" d="M36 289C33.734 294.562 31.7737 313.039 43.9568 306.957C48.7432 304.567 49.304 298.519 54 296L51 308L56 310C59.1671 304.428 63.0859 285.311 50.0154 289.782C44.5363 291.657 43.8804 298.382 39 301C39.5276 295.695 42.2307 291.298 36 289z"/>
<path style="fill:#876740; stroke:none;" d="M580 289L580 290L584 290L580 289z"/>
<path style="fill:#ead1b3; stroke:none;" d="M555 296L555 304L556 304L555 296z"/>
<path style="fill:#bababa; stroke:none;" d="M289 297L289 298L302 298L289 297z"/>
<path style="fill:#bfbdbe; stroke:none;" d="M343 297L343 298L356 298L343 297M393 297L393 298L410 298L393 297z"/>
<path style="fill:#c9c9c9; stroke:none;" d="M451 297L451 384L452 384L452 298L468 298L451 297z"/>
<path style="fill:#e9b681; stroke:none;" d="M0 299L0 308L1 308L0 299z"/>
<path style="fill:#fefefe; stroke:none;" d="M195 304L183 347L208 347C206.991 334.643 201.611 314.505 195 304z"/>
<path style="fill:#d1af8c; stroke:none;" d="M556 307L556 331L557 331L556 307z"/>
<path style="fill:#c7a37f; stroke:none;" d="M83 312L83 328L84 328L83 312z"/>
<path style="fill:#3d332a; stroke:none;" d="M585 332C580.383 332.989 581.606 338.281 586 338.917C595.378 340.272 606.524 340 616 340L616 332L605 332C620.52 306.857 568.57 306.74 585 332z"/>
<path style="fill:#907c41; stroke:none;" d="M49 313L49 314L52 314L49 313z"/>
<path style="fill:#39372b; stroke:none;" d="M38 327L40 317L34 315C31.9311 321.526 34.3371 340.993 45.3511 331.258C48.277 328.672 49.1611 323.624 50 320L52 320L51 332L56 334C58.3398 327.723 60.4268 307.602 47.108 315.028C42.282 317.718 42.7948 324.228 38 327z"/>
<path style="fill:#ebbf68; stroke:none;" d="M566 328L565 328L565 336L564 336L564 328L562 328C562 434.615 476.713 535.422 373 557L373 558L382 559L390 556L393 557L400 556L400 560C389.552 560 385.934 563.525 378.755 570.745C376.251 573.264 372.073 575.098 371.748 579.09C371.055 587.593 377.083 594.532 371.146 602.956C365.92 610.371 350.117 612.386 353 600C359.109 602.939 365.454 602.476 367 595C354.303 597.902 344.349 593.703 349 579L342 577L343 611L336 611L335 584C330.578 584.5 328.918 583.388 328 579L327 579C321.971 587.578 329.015 597.515 320.786 605.787C305.866 620.786 293.494 599.214 298 585L294 578L293 578C293.461 591.058 285.749 592.751 277 600L291 602L290 609L275 607L275 609L280 609L278 611L278 612L282 612L282 613C275.087 614.797 270.73 618.758 272 626L256 624L256 626C271.473 626.794 287.244 631.831 303 632.911C335.86 635.161 370.173 629.841 402 622L401 620L405 619L404 617L420 615L416 607L432 600L432 596L436 592L448 589L448 584L456 584C457.916 571.616 472.714 570.683 480.946 564.941C486.441 561.108 490.215 554.79 495.259 550.433C498.551 547.589 502.506 548.506 504 544L512 544L512 536L544 520L543 515L548 517L549 517C549 510.523 563.581 503.674 563 506L568 504L568 498L569 498L569 501L570 501C572.802 496.309 576.751 496.229 580.239 492.683C584.346 488.507 587.675 482.027 590.675 477C610.209 444.271 622.418 406.481 628.438 369C630.683 355.027 634.896 338.707 630 325L624 325C622.037 319.091 616.49 319.849 616 326L612 326L612 322L611 322L609 330L617 329C622.782 345.365 591.07 339 581 339L584 331C581.732 324.56 581.925 321.481 584 315C576.792 318.975 582.899 327.001 578.536 332.525C572.841 339.737 566.093 335.826 566 328z"/>
<path style="fill:#ce9442; stroke:none;" d="M592.109 319.758C584.548 322.742 589.257 334.143 596.981 331.127C605.516 327.793 599.766 316.735 592.109 319.758z"/>
<path style="fill:#b38a52; stroke:none;" d="M38.3333 320.667L38.6667 321.333L38.3333 320.667z"/>
<path style="fill:#8a7f51; stroke:none;" d="M58.3333 326.667L58.6667 327.333L58.3333 326.667z"/>
<path style="fill:#949494; stroke:none;" d="M202 326L203 327L202 326z"/>
<path style="fill:#e3af75; stroke:none;" d="M0 328L0 339L1 339L0 328z"/>
<path style="fill:#f32f31; stroke:none;" d="M298 331L278 381C298.544 385.202 304.26 345.918 298 331z"/>
<path style="fill:#7f5e33; stroke:none;" d="M581 331C581 334.511 580.013 338.146 584 339L584 338C582.077 335.348 582.236 333.806 585 332L581 331z"/>
<path style="fill:#e1a368; stroke:none;" d="M639 331L639 339L640 339L639 331z"/>
<path style="fill:#71582f; stroke:none;" d="M616 332L616 340L617 340L616 332z"/>
<path style="fill:#a67f56; stroke:none;" d="M39.6667 333.333L40.3333 333.667L39.6667 333.333z"/>
<path style="fill:#856b38; stroke:none;" d="M56 337L56 338L58 340L59 340L56 337z"/>
<path style="fill:#3c3231; stroke:none;" d="M27 362L62 371L62 364C51.6468 362.568 48.5789 349.097 59 345L58 338C46.9895 339.964 27.0422 350.055 27 362z"/>
<path style="fill:#fefefe; stroke:none;" d="M0 339L0 640L291 640L291 639C261.6 638.919 230.002 628.721 203 617.922C123.391 586.082 59.7412 523.713 25.6535 445C15.2129 420.891 9.0108 395.664 4.00077 370C2.14327 360.485 3.66277 347.729 0 339z"/>
<path style="fill:#cdaf95; stroke:none;" d="M555 339L555 344L556 344L555 339z"/>
<path style="fill:#fff6d4; stroke:none;" d="M639 339L638 359L639 359L639 339z"/>
<path style="fill:#ac9760; stroke:none;" d="M46 342L46 344L48 342L46 342z"/>
<path style="fill:#33362f; stroke:none;" d="M589 345.537C572.539 349.342 577.998 376.489 594.985 372.605C611.355 368.862 606.125 341.578 589 345.537z"/>
<path style="fill:#cda975; stroke:none;" d="M599 346C604.641 354.644 609.127 372.79 592 372.79C587.588 372.79 583.911 369.621 580 368C582.423 376.159 596.478 375.919 602.161 370.881C607.435 366.205 606.999 358.402 607 352L599 346z"/>
<path style="fill:#e4c6ac; stroke:none;" d="M1 347L1 352L2 352L1 347z"/>
<path style="fill:#b39e6f; stroke:none;" d="M52.3333 349.667L52.6667 350.333L52.3333 349.667z"/>
<path style="fill:#efd380; stroke:none;" d="M37 358L47 360L46 352L37 358z"/>
<path style="fill:#e5a14e; stroke:none;" d="M594 364L594 363L591 363L591 362C598.966 361.735 594.929 358.865 596 354C585.982 348.126 579.715 365.641 594 364z"/>
<path style="fill:#fefefe; stroke:none;" d="M639 352C637.693 397.209 616.534 446.616 594.138 485C583.933 502.492 569.867 517.253 562 536L560 535L550 544C549.575 547.772 542.802 554.453 539 555C531.129 570.101 511.533 576.914 498 585.691C456.227 612.785 402.991 637.994 352 638L352 640L640 640L640 437L640 378L639 352z"/>
<path style="fill:#a58a5f; stroke:none;" d="M26 354L26 358L27 358L26 354z"/>
<path style="fill:#d1b07a; stroke:none;" d="M594 354C596.692 358.671 597.098 361.527 591 362L591 363L594 363L594 364L590 364L590 366C597.009 365.362 603.29 356.821 594 354z"/>
<path style="fill:#e0c6a5; stroke:none;" d="M2 356L2 360L3 360L2 356z"/>
<path style="fill:#b19563; stroke:none;" d="M46 356L46 359L47 359L46 356z"/>
<path style="fill:#c9a581; stroke:none;" d="M553 356L553 360L554 360L553 356z"/>
<path style="fill:#947549; stroke:none;" d="M605 356L605 361L606 361L605 356z"/>
<path style="fill:#92835a; stroke:none;" d="M53 357L53 362L54 362L53 357z"/>
<path style="fill:#aa9d68; stroke:none;" d="M54.6667 362.333L55.3333 362.667L54.6667 362.333z"/>
<path style="fill:#71683f; stroke:none;" d="M33.6667 363.333L34.3333 363.667L33.6667 363.333z"/>
<path style="fill:#e9cca2; stroke:none;" d="M3 364L3 368L4 368L3 364z"/>
<path style="fill:#b49054; stroke:none;" d="M62 369L61 372L62 369z"/>
<path style="fill:#9f9f9f; stroke:none;" d="M139.333 374.667L139.667 375.333L139.333 374.667M217 375L218 376L217 375z"/>
<path style="fill:#ddc098; stroke:none;" d="M549.333 376.667L549.667 377.333L549.333 376.667z"/>
<path style="fill:#a84c59; stroke:none;" d="M277 379C277.654 382.054 279.007 381.936 282 382L282 381L277 379z"/>
<path style="fill:#d6b68d; stroke:none;" d="M548.333 380.667L548.667 381.333L548.333 380.667z"/>
<path style="fill:#a15964; stroke:none;" d="M284 383L284 389L285 389L287 383L284 383z"/>
<path style="fill:#edc16a; stroke:none;" d="M86 384L86 390L84 392C81.6838 390.61 81.6255 388.872 81 392L80 392L79 389C65.6676 398.593 48.3954 405 32 405L32 408L45 408C41.3679 412.768 37.6933 412.996 32 413L32 424L31 424L31 421L30 421C29.9646 433.83 32.4008 457.294 45 465L40 451L48 452L47 460L64 459L64 456L53 456L64 453L64 448C69.6277 446.208 78.1886 434.535 80 429C86.0488 428.999 95.896 422.734 99 428L103 428L86 384z"/>
<path style="fill:#7c7a7b; stroke:none;" d="M123 384L123 385L136 385L123 384z"/>
<path style="fill:#878586; stroke:none;" d="M171 384L171 385L186 385L186 410L123 410L123 411L187 411L187 384L171 384M201 384L201 411L281 411L281 410L202 410L202 385L220 385L201 384z"/>
<path style="fill:#787c7f; stroke:none;" d="M267 384L267 385L281 385L267 384z"/>
<path style="fill:#878586; stroke:none;" d="M355 384L355 410L289 410L289 411L356 411L355 384z"/>
<path style="fill:#c3c3c3; stroke:none;" d="M393 384L393 411L394 411L393 384z"/>
<path style="fill:#d2b18e; stroke:none;" d="M7.33333 387.667L7.66667 388.333L7.33333 387.667z"/>
<path style="fill:#d8b99c; stroke:none;" d="M8.33333 392.667L8.66667 393.333L8.33333 392.667z"/>
<path style="fill:#d1bda2; stroke:none;" d="M10.3333 400.667L10.6667 401.333L10.3333 400.667z"/>
<path style="fill:#d5bd97; stroke:none;" d="M628.333 404.667L628.667 405.333L628.333 404.667z"/>
<path style="fill:#878586; stroke:none;" d="M394 410L394 411L468 411L445 410L394 410z"/>
<path style="fill:#d4ab8f; stroke:none;" d="M102.333 412.667L102.667 413.333L102.333 412.667z"/>
<path style="fill:#be4648; stroke:none;" d="M249 420L263 414L263 418L267 413C259.271 413 252.318 411.654 249 420z"/>
<path style="fill:#3f50a2; stroke:none;" d="M275 447C285.727 439.105 296.306 425.037 302 413C289.867 413 277.073 420.788 273.773 434C272.809 437.859 274.916 442.966 275 447z"/>
<path style="fill:#e53235; stroke:none;" d="M248 419C242.587 427.477 235.779 429.842 228 435.17C208.621 448.443 185.644 458.123 164 467L166 468L166 469L142 473C145.456 488.743 166.661 473.822 176 470.951C196.362 464.69 216.505 457.839 233.981 444.957C237.492 442.369 238.783 438.123 242.144 435.599C250.16 429.577 262.605 426.166 263 414L248 419z"/>
<path style="fill:#c0414c; stroke:none;" d="M234 432C240.027 430.488 244.702 425.047 248 420L234 432z"/>
<path style="fill:#e3b560; stroke:none;" d="M80 429L64 448L64 453L53 456L64 456L64 459L47 460L48 452L40 451L43 466C53.2665 479.725 60.9153 506.157 77 514L74 507L78 509L76 505L79 496L96 496L96 485L104 485L104 480L112 480L112 464L116 464C115.999 454.565 111.177 428.544 99 428C96.6831 421.402 85.912 428.995 80 429z"/>
<path style="fill:#353535; stroke:none;" d="M256 432C259.494 438.781 270.111 455.862 257 460C255.644 449.273 258.713 439.123 245 439L250 468L231 472C231.994 464.815 235.04 462.904 242 462C239.88 451.834 228.418 458.524 222 461C226.248 466.593 222.988 471.776 226.183 476.682C230.039 482.604 244.759 475.202 250 474L252 484C256.622 478.394 256 471.88 256 465L262 466C262.145 473.023 260.926 490.71 267 495C270.424 478.404 270.205 461.9 269.996 445C269.893 436.645 265.133 429.719 256 432z"/>
<path style="fill:#333333; stroke:none;" d="M324 433C332.366 445.249 337.411 459.779 319 464C320.979 470.265 326.688 468.671 332 468L332 482C342.65 472.84 346.239 426.441 324 433z"/>
<path style="fill:#a4a4a4; stroke:none;" d="M266 433L267 434L266 433z"/>
<path style="fill:#c67677; stroke:none;" d="M239 437L239 441L240 441L239 437z"/>
<path style="fill:#5c5c5c; stroke:none;" d="M306 437L306 438L313 438L306 437z"/>
<path style="fill:#f3a3a4; stroke:none;" d="M222 438L222 440L224 438L222 438z"/>
<path style="fill:#7c6b75; stroke:none;" d="M244 438L244 440L246 438L244 438z"/>
<path style="fill:#363636; stroke:none;" d="M295 443C299.462 451.847 304.195 442.489 309.639 445.97C312.945 448.085 309.881 452.496 307.786 454.146C302.916 457.981 294.893 457.89 289 459C291.573 465.726 298.152 463.739 304 463L302 478C309.162 475.165 312.622 468.481 311 461C319.329 458.993 324.982 452.187 313 455C328.265 439.223 307.094 435.794 295 443z"/>
<path style="fill:#a3a3a3; stroke:none;" d="M314 438L315 439L314 438z"/>
<path style="fill:#343434; stroke:none;" d="M407 464C406.59 451.504 390.856 459.657 383 460C383.406 455.037 384.365 448.781 390.015 447.318C394.196 446.236 405.731 448.567 406.534 442C406.92 438.843 403.403 438.083 400.995 438.138C395.789 438.258 391.241 441.517 386 441.91C382.532 442.17 376.507 440.789 373.623 443.175C369.866 446.283 377.342 449.586 378.111 452.213C379.196 455.919 376.816 460.141 379.179 463.682C383.467 470.109 400.824 464.492 407 464z"/>
<path style="fill:#d0d0d0; stroke:none;" d="M407 439L407 443L408 443L407 439z"/>
<path style="fill:#747474; stroke:none;" d="M392.667 440.333L393.333 440.667L392.667 440.333z"/>
<path style="fill:#979797; stroke:none;" d="M387 441L387 442L390 442L387 441z"/>
<path style="fill:#9d9d9d; stroke:none;" d="M296 442L297 443L296 442z"/>
<path style="fill:#949494; stroke:none;" d="M318 442L319 443L318 442z"/>
<path style="fill:#8f8f8f; stroke:none;" d="M270 443L270 452L271 452L270 443z"/>
<path style="fill:#c1c1c1; stroke:none;" d="M371.333 443.667L371.667 444.333L371.333 443.667z"/>
<path style="fill:#b7b7b7; stroke:none;" d="M307.667 444.333L308.333 444.667L307.667 444.333z"/>
<path style="fill:#aaaaaa; stroke:none;" d="M319.333 445.667L319.667 446.333L319.333 445.667z"/>
<path style="fill:#555555; stroke:none;" d="M249 447L249 456L250 456L249 447z"/>
<path style="fill:#aeaeae; stroke:none;" d="M299 448L299 449L302 449L299 448z"/>
<path style="fill:#9a9a9a; stroke:none;" d="M339 448L339 456L340 456L339 448z"/>
<path style="fill:#cd9447; stroke:none;" d="M115 450L116 464L112 464L112 480L104 480L104 485L96 485L96 496L79 496L76 505L78 509L74 507C92.397 545.106 136.346 579.75 174.911 597.558C185.325 602.367 196.563 610.185 208 612C208.321 602.193 215.528 600.001 224 600L224 592L236 587C236.686 580.782 242.074 581.806 247 582L247 576L253 577C258.235 570.961 263.046 568.006 271 568L271 565L275 565L275 564L273 561L296 562L296 561C245.352 560.581 191.298 531.694 155.271 497.54C140.15 483.206 129.96 463.798 115 450z"/>
<path style="fill:#848484; stroke:none;" d="M378 450L378 454L379 454L378 450z"/>
<path style="fill:#b5b5b5; stroke:none;" d="M262 451L262 454L263 454L262 451z"/>
<path style="fill:#9b9b9b; stroke:none;" d="M331.333 452.667L331.667 453.333L331.333 452.667z"/>
<path style="fill:#929292; stroke:none;" d="M314 453L313 455L315 455L314 453z"/>
<path style="fill:#808080; stroke:none;" d="M249 456L249 468L250 468L249 456z"/>
<path style="fill:#a0a0a0; stroke:none;" d="M387.667 459.333L388.333 459.667L387.667 459.333z"/>
<path style="fill:#8e8e8c; stroke:none;" d="M223 460L224 461L223 460z"/>
<path style="fill:#c2c2c2; stroke:none;" d="M312 460L312 461L316 461L312 460z"/>
<path style="fill:#a2a2a2; stroke:none;" d="M407 460L407 463L408 463L407 460z"/>
<path style="fill:#c53f46; stroke:none;" d="M140 475L166 469L166 468L164 467L177 462C170.954 459.557 154.537 467.942 148 470C144.607 471.068 140.796 471.268 140 475z"/>
<path style="fill:#aea3a9; stroke:none;" d="M238 462L238 463L241 463L238 462z"/>
<path style="fill:#e6bf98; stroke:none;" d="M606.333 462.667L606.667 463.333L606.333 462.667z"/>
<path style="fill:#909090; stroke:none;" d="M291 463L292 464L291 463z"/>
<path style="fill:#747474; stroke:none;" d="M319 463L319 464L322 464L319 463z"/>
<path style="fill:#bbbbbb; stroke:none;" d="M292 464L292 465L296 465L292 464z"/>
<path style="fill:#9d9d9d; stroke:none;" d="M318 464L318 467L319 467L318 464z"/>
<path style="fill:#a6a6a6; stroke:none;" d="M402.667 464.333L403.333 464.667L402.667 464.333z"/>
<path style="fill:#959595; stroke:none;" d="M256.667 465.333L257.333 465.667L256.667 465.333z"/>
<path style="fill:#a3a3a3; stroke:none;" d="M260.667 466.333L261.333 466.667L260.667 466.333z"/>
<path style="fill:#737373; stroke:none;" d="M303.333 466.667L303.667 467.333L303.333 466.667z"/>
<path style="fill:#6a6a6a; stroke:none;" d="M381 466L381 467L388 467L381 466z"/>
<path style="fill:#a7a7a7; stroke:none;" d="M388 466L388 467L391 467L388 466z"/>
<path style="fill:#6b696a; stroke:none;" d="M231 468L234 472L234 471L231 468z"/>
<path style="fill:#a3a3a3; stroke:none;" d="M331 468L331 471L332 471L331 468z"/>
<path style="fill:#aaaaaa; stroke:none;" d="M388.333 468.667L388.667 469.333L388.333 468.667z"/>
<path style="fill:#6c6c6c; stroke:none;" d="M389 468L389 469L395 469L389 468z"/>
<path style="fill:#d03d45; stroke:none;" d="M160 478L184 470C178.385 467.875 163.44 473.16 160 478z"/>
<path style="fill:#d4d4d4; stroke:none;" d="M322 469L322 470L326 470L322 469z"/>
<path style="fill:#353535; stroke:none;" d="M389 469L394 482C386.781 482 362.562 478.282 360 486C368.524 490.284 375.022 488.072 384 487.171C395.326 486.034 406.616 486 418 486C416.833 475.778 406.104 479.376 399 481C399 472.14 398.555 469.027 389 469z"/>
<path style="fill:#9f9f9f; stroke:none;" d="M310 470L311 471L310 470z"/>
<path style="fill:#405397; stroke:none;" d="M159 493C170.133 506.796 191.128 494.033 205 488.947C209.274 487.38 218.396 485.422 220.929 481.362C222.532 478.793 220.58 474.031 221 471L189 482.782L159 493z"/>
<path style="fill:#cdd1ee; stroke:none;" d="M220 472L220 476L221 476L220 472z"/>
<path style="fill:#a1a1a1; stroke:none;" d="M262 472L262 475L263 475L262 472z"/>
<path style="fill:#797979; stroke:none;" d="M302.333 472.667L302.667 473.333L302.333 472.667z"/>
<path style="fill:#c6c6c6; stroke:none;" d="M337.333 472.667L337.667 473.333L337.333 472.667z"/>
<path style="fill:#9c9c9c; stroke:none;" d="M390 473L391 474L390 473z"/>
<path style="fill:#808080; stroke:none;" d="M399 473L399 478L400 478L399 473z"/>
<path style="fill:#d6d6d6; stroke:none;" d="M310 477L310 478L314 478L310 477z"/>
<path style="fill:#8f8f8f; stroke:none;" d="M307 478L307 481L308 481L307 478z"/>
<path style="fill:#353535; stroke:none;" d="M308 478C308.491 484.627 315.021 493.844 321.001 496.82C327.64 500.125 335.456 496.156 336 489L319 491C318.318 482.364 317.389 478.033 308 478z"/>
<path style="fill:#989898; stroke:none;" d="M335 478L336 479L335 478z"/>
<path style="fill:#d1cfd0; stroke:none;" d="M227 479L227 480L232 480L227 479z"/>
<path style="fill:#a3aac6; stroke:none;" d="M222.333 480.667L222.667 481.333L222.333 480.667z"/>
<path style="fill:#959595; stroke:none;" d="M254 480L255 481L254 480z"/>
<path style="fill:#b0b0b0; stroke:none;" d="M269.333 480.667L269.667 481.333L269.333 480.667z"/>
<path style="fill:#878787; stroke:none;" d="M400.667 480.333L401.333 480.667L400.667 480.333z"/>
<path style="fill:#a6a6a6; stroke:none;" d="M364 481L364 482L368 482L364 481z"/>
<path style="fill:#8e8e8e; stroke:none;" d="M368 481L368 482L394 482L368 481z"/>
<path style="fill:#9e9e9e; stroke:none;" d="M253 482L254 483L253 482z"/>
<path style="fill:#8a8a8a; stroke:none;" d="M359 482L359 484L361 482L359 482z"/>
<path style="fill:#8e8e8e; stroke:none;" d="M310 484L311 485L310 484z"/>
<path style="fill:#acacac; stroke:none;" d="M318 484L318 487L319 487L318 484z"/>
<path style="fill:#b5b5b5; stroke:none;" d="M263.333 486.667L263.667 487.333L263.333 486.667z"/>
<path style="fill:#717171; stroke:none;" d="M393 486L393 487L418 487L393 486z"/>
<path style="fill:#8e8e8e; stroke:none;" d="M331 488L331 489L334 489L331 488z"/>
<path style="fill:#9b9b9b; stroke:none;" d="M376.667 488.333L377.333 488.667L376.667 488.333z"/>
<path style="fill:#656565; stroke:none;" d="M327.667 489.333L328.333 489.667L327.667 489.333z"/>
<path style="fill:#808080; stroke:none;" d="M368 489L368 490L372 490L368 489z"/>
<path style="fill:#878787; stroke:none;" d="M336 491L336 494L337 494L336 491z"/>
<path style="fill:#a98561; stroke:none;" d="M157 492C159.172 499.031 166.392 503.577 173 506L160 492L157 492z"/>
<path style="fill:#989898; stroke:none;" d="M317 494L318 495L317 494z"/>
<path style="fill:#fbd479; stroke:none;" d="M570 501L569 501L569 498L568 498L568 504L563 506L563 504C557.434 506.985 550.032 510.257 549 517L548 517L543 515L544 520L512 536L512 544L504 544C501.817 547.961 498.605 547.248 495.259 549.742C488.648 554.668 484.703 563.024 477 566.656C468.986 570.434 456.815 573.212 456 584L448 584L448 589L436 592L432 596L432 600L416 607L420 615L404 617L405 619L401 620L401 621C417.418 619.693 433.017 611.495 448 605.282C499.814 583.8 549.31 542.676 579 495C574.142 495.159 571.838 496.409 570 501z"/>
<path style="fill:#b3b3b3; stroke:none;" d="M328.667 497.333L329.333 497.667L328.667 497.333z"/>
<path style="fill:#eed3b6; stroke:none;" d="M586 497L585 500L586 497z"/>
<path style="fill:#fff9e4; stroke:none;" d="M410 539C430.487 533.098 459.573 516.6 473 500C464.967 500.584 459.895 507.714 454 512.537C445.505 519.486 435.206 525.416 425.001 529.421C419.834 531.449 412.077 533.569 410 539z"/>
<path style="fill:#d9bea1; stroke:none;" d="M582 502L582 504L584 502L582 502z"/>
<path style="fill:#e0be98; stroke:none;" d="M196.667 522.333L197.333 522.667L196.667 522.333z"/>
<path style="fill:#fffae4; stroke:none;" d="M567 523C551.283 542.366 532.908 559.999 513 575L513 576C522.064 574.997 536.189 563.856 539 555C543.25 554.789 549.805 548.257 550 544L560 535L562 536L567 523z"/>
<path style="fill:#e5c29a; stroke:none;" d="M438.667 524.333L439.333 524.667L438.667 524.333z"/>
<path style="fill:#ead0b9; stroke:none;" d="M202 525L205 527L202 525z"/>
<path style="fill:#c7aa8c; stroke:none;" d="M291 555L291 556L296 556L291 555z"/>
<path style="fill:#d49f51; stroke:none;" d="M393 557L390 556L382 559L373 558L373 557L377 557L377 556L341 561.83L273 561L275 564L275 565L271 565L271 568C263.249 568.001 257.193 569.901 253 577L247 576L247 582C241.847 581.597 236.298 580.234 236 587L224 592L224 600C214.214 600 208.039 602.069 208 613C230.076 619.023 249.236 625.922 272 626C271.327 618.895 275.739 615.647 282 613L282 612L278 612L278 611L280 609L275 609L275 606L265 605C266.796 593.787 279.749 595.121 284.806 586.611C290.313 577.345 274.75 582.423 273.06 579.557C271.556 577.005 275.023 574.506 277.008 573.746C283.639 571.21 288.175 577.111 294 578L296 585L298 585C304.905 575.969 315.237 572.718 323 583L325 583C332.618 574.46 338.163 579.33 347 578.967C358.176 578.508 359.467 572.065 371 579C378.434 569.612 387.642 560.001 400 560L400 556L393 557z"/>
<path style="fill:#d8bb9b; stroke:none;" d="M302 556L302 557L312 557L302 556z"/>
<path style="fill:#cfb294; stroke:none;" d="M328 556L328 557L336 557L328 556z"/>
<path style="fill:#383735; stroke:none;" d="M265 605L290 608L290 602L277 600C283.846 596.004 294.639 591.927 293.293 582.004C292.23 574.164 277.534 568.813 272.712 576.224C267.273 584.583 287.016 575.691 285.033 584.911C282.828 595.162 266.12 592.758 265 605z"/>
<path style="fill:#363530; stroke:none;" d="M366 593C366.675 602.063 359.84 603.009 353 600C349.295 610.477 362.121 611.408 368.812 606.297C381.097 596.913 372.521 568.25 355.001 575.148C348.463 577.722 343.133 588.902 350.419 593.987C355.081 597.24 361.432 595.029 366 593z"/>
<path style="fill:#393431; stroke:none;" d="M307 576.573C288.191 581.885 294.808 615.45 315.999 609.297C333.671 604.166 326.501 571.066 307 576.573z"/>
<path style="fill:#9c7e5a; stroke:none;" d="M336 576L336 577L342 577L336 576z"/>
<path style="fill:#353432; stroke:none;" d="M328 579C328.554 583.814 330.284 584.994 335 584L336 610L343 610L342 577L328 579z"/>
<path style="fill:#3b342c; stroke:none;" d="M389 577C387.825 582.932 386.375 585.65 380 586L380 587C385.626 589.558 385.704 592.273 385 598C390.061 594.644 392.246 593.724 398 596C396.468 590.443 396.744 588.805 400 584L392 584L389 577z"/>
<path style="fill:#38332d; stroke:none;" d="M250 578C247.503 582.858 245.415 583.936 240 584C243.2 588.833 243.542 590.475 242 596C247.568 594.089 249.682 594.741 255 597C254.641 591.673 254.854 589.346 260 587L260 586L252 585L250 578z"/>
<path style="fill:#88702a; stroke:none;" d="M318.667 578.333L319.333 578.667L318.667 578.333z"/>
<path style="fill:#7e6046; stroke:none;" d="M279 579L279 580L283 580L279 579z"/>
<path style="fill:#79673f; stroke:none;" d="M358 580L358 581L363 581L358 580z"/>
<path style="fill:#e7b461; stroke:none;" d="M357.229 581.743C351.015 584.614 357.155 593.077 362.852 589.816C369.274 586.141 363.008 579.074 357.229 581.743z"/>
<path style="fill:#dfae62; stroke:none;" d="M308.109 584.032C300.431 588.235 303.764 608.873 313.787 602.971C321.229 598.589 318.603 578.286 308.109 584.032z"/>
<path style="fill:#846c40; stroke:none;" d="M381 585L381 586L386 586L381 585z"/>
<path style="fill:#9e865a; stroke:none;" d="M382.667 588.333L383.333 588.667L382.667 588.333z"/>
<path style="fill:#74602e; stroke:none;" d="M342 589L342 595L343 595L342 589z"/>
<path style="fill:#91734f; stroke:none;" d="M279.667 590.333L280.333 590.667L279.667 590.333z"/>
<path style="fill:#4d2909; stroke:none;" d="M352 595L352 596C357.073 597.207 362.96 597.969 366 593L352 595z"/>
<path style="fill:#947b42; stroke:none;" d="M335 600L335 608L336 608L335 600z"/>
<path style="fill:#e4bd96; stroke:none;" d="M166.667 601.333L167.333 601.667L166.667 601.333z"/>
<path style="fill:#96713d; stroke:none;" d="M290.333 602.667L290.667 603.333L290.333 602.667z"/>
<path style="fill:#836a4c; stroke:none;" d="M357 602L357 603L362 603L357 602z"/>
<path style="fill:#a17a39; stroke:none;" d="M286 608L286 609L290 609L286 608z"/>
<path style="fill:#64522e; stroke:none;" d="M306 610L306 611L314 611L306 610z"/>
<path style="fill:#80683c; stroke:none;" d="M336 610L336 611L343 611L336 610z"/>
<path style="fill:#dcb999; stroke:none;" d="M398.667 630.333L399.333 630.667L398.667 630.333z"/>
<path style="fill:#d2b595; stroke:none;" d="M244.667 631.333L245.333 631.667L244.667 631.333z"/>
<path style="fill:#dabd9b; stroke:none;" d="M248.667 632.333L249.333 632.667L248.667 632.333z"/>
<path style="fill:#d5b898; stroke:none;" d="M269 636L269 637L272 637L269 636z"/>
<path style="fill:#bfa584; stroke:none;" d="M275 637L275 638L280 638L275 637z"/>
<path style="fill:#d5b9a1; stroke:none;" d="M282 638L282 639L288 639L282 638z"/>
<path style="fill:#f9d19d; stroke:none;" d="M291 639L291 640L299 640L291 639z"/>
<path style="fill:#e9bb80; stroke:none;" d="M339 639L339 640L344 640L339 639z"/>
<path style="fill:#ffe7b9; stroke:none;" d="M344 639L344 640L352 640L344 639z"/>
</svg>
